%TF.GenerationSoftware,KiCad,Pcbnew,(7.0.0)*%
%TF.CreationDate,2023-05-24T11:09:11+02:00*%
%TF.ProjectId,Precision-Lapping-Machine,50726563-6973-4696-9f6e-2d4c61707069,rev?*%
%TF.SameCoordinates,Original*%
%TF.FileFunction,Copper,L1,Top*%
%TF.FilePolarity,Positive*%
%FSLAX46Y46*%
G04 Gerber Fmt 4.6, Leading zero omitted, Abs format (unit mm)*
G04 Created by KiCad (PCBNEW (7.0.0)) date 2023-05-24 11:09:11*
%MOMM*%
%LPD*%
G01*
G04 APERTURE LIST*
%TA.AperFunction,ComponentPad*%
%ADD10C,1.600000*%
%TD*%
%TA.AperFunction,ComponentPad*%
%ADD11O,1.600000X1.600000*%
%TD*%
%TA.AperFunction,ComponentPad*%
%ADD12R,1.600000X1.600000*%
%TD*%
%TA.AperFunction,ComponentPad*%
%ADD13R,1.500000X1.050000*%
%TD*%
%TA.AperFunction,ComponentPad*%
%ADD14O,1.500000X1.050000*%
%TD*%
%TA.AperFunction,ComponentPad*%
%ADD15R,1.700000X1.700000*%
%TD*%
%TA.AperFunction,ComponentPad*%
%ADD16O,1.700000X1.700000*%
%TD*%
%TA.AperFunction,ComponentPad*%
%ADD17R,1.800000X1.800000*%
%TD*%
%TA.AperFunction,ComponentPad*%
%ADD18C,1.800000*%
%TD*%
%TA.AperFunction,ComponentPad*%
%ADD19R,2.200000X2.200000*%
%TD*%
%TA.AperFunction,ComponentPad*%
%ADD20O,2.200000X2.200000*%
%TD*%
%TA.AperFunction,ComponentPad*%
%ADD21C,1.400000*%
%TD*%
%TA.AperFunction,ComponentPad*%
%ADD22O,1.400000X1.400000*%
%TD*%
%TA.AperFunction,ComponentPad*%
%ADD23R,1.050000X1.500000*%
%TD*%
%TA.AperFunction,ComponentPad*%
%ADD24O,1.050000X1.500000*%
%TD*%
%TA.AperFunction,ComponentPad*%
%ADD25O,1.800000X1.800000*%
%TD*%
%TA.AperFunction,ComponentPad*%
%ADD26R,1.905000X2.000000*%
%TD*%
%TA.AperFunction,ComponentPad*%
%ADD27O,1.905000X2.000000*%
%TD*%
%TA.AperFunction,ViaPad*%
%ADD28C,0.800000*%
%TD*%
%TA.AperFunction,Conductor*%
%ADD29C,0.250000*%
%TD*%
G04 APERTURE END LIST*
D10*
%TO.P,R18,1*%
%TO.N,Net-(D13-K)*%
X157480000Y-91480000D03*
D11*
%TO.P,R18,2*%
%TO.N,GND*%
X157479999Y-81319999D03*
%TD*%
D10*
%TO.P,R21,1*%
%TO.N,/AVR/PWMA*%
X185420000Y-109220000D03*
D11*
%TO.P,R21,2*%
%TO.N,Net-(Q15-B)*%
X175259999Y-109219999D03*
%TD*%
D10*
%TO.P,R24,1*%
%TO.N,Net-(D16-K)*%
X149860000Y-94020000D03*
D11*
%TO.P,R24,2*%
%TO.N,GND*%
X149859999Y-104179999D03*
%TD*%
D12*
%TO.P,U2,1*%
%TO.N,Net-(Q11-C)*%
X135879999Y-95254999D03*
D11*
%TO.P,U2,2*%
%TO.N,Net-(D12-A)*%
X135879999Y-92714999D03*
%TO.P,U2,3*%
%TO.N,/OptoIsolation/Serial_Gnd*%
X128259999Y-92714999D03*
%TO.P,U2,4*%
%TO.N,Net-(Q8-B)*%
X128259999Y-95254999D03*
%TD*%
D13*
%TO.P,Q8,1,C*%
%TO.N,Net-(Q7-B)*%
X121919999Y-96519999D03*
D14*
%TO.P,Q8,2,B*%
%TO.N,Net-(Q8-B)*%
X121919999Y-97789999D03*
%TO.P,Q8,3,E*%
%TO.N,/OptoIsolation/Serial_Gnd*%
X121919999Y-99059999D03*
%TD*%
D15*
%TO.P,J10,1,Pin_1*%
%TO.N,Net-(J10-Pin_1)*%
X193039999Y-55879999D03*
D16*
%TO.P,J10,2,Pin_2*%
%TO.N,Net-(J10-Pin_2)*%
X190499999Y-55879999D03*
%TO.P,J10,3,Pin_3*%
%TO.N,Net-(J10-Pin_3)*%
X187959999Y-55879999D03*
%TO.P,J10,4,Pin_4*%
%TO.N,Net-(J10-Pin_4)*%
X185419999Y-55879999D03*
%TO.P,J10,5,Pin_5*%
%TO.N,Net-(J10-Pin_5)*%
X182879999Y-55879999D03*
%TO.P,J10,6,Pin_6*%
%TO.N,Net-(J10-Pin_6)*%
X180339999Y-55879999D03*
%TO.P,J10,7,Pin_7*%
%TO.N,Net-(J10-Pin_7)*%
X177799999Y-55879999D03*
%TO.P,J10,8,Pin_8*%
%TO.N,Net-(J10-Pin_8)*%
X175259999Y-55879999D03*
%TO.P,J10,9,Pin_9*%
%TO.N,Net-(J10-Pin_9)*%
X172719999Y-55879999D03*
%TO.P,J10,10,Pin_10*%
%TO.N,Net-(J10-Pin_10)*%
X170179999Y-55879999D03*
%TD*%
D15*
%TO.P,J4,1,Pin_1*%
%TO.N,/Serial/DTR*%
X60959999Y-68599999D03*
%TD*%
D10*
%TO.P,C5,1*%
%TO.N,GND*%
X201990000Y-60960000D03*
%TO.P,C5,2*%
%TO.N,+5V*%
X209490000Y-60960000D03*
%TD*%
%TO.P,R2,1*%
%TO.N,/OptoIsolation/VoutL*%
X106680000Y-101640000D03*
D11*
%TO.P,R2,2*%
%TO.N,Net-(Q1-B)*%
X96519999Y-101639999D03*
%TD*%
D12*
%TO.P,C3,1*%
%TO.N,/OptoIsolation/Vcc*%
X91439999Y-99124887D03*
D10*
%TO.P,C3,2*%
%TO.N,/OptoIsolation/Serial_Gnd*%
X91440000Y-96624888D03*
%TD*%
D17*
%TO.P,D14,1,K*%
%TO.N,Net-(D13-K)*%
X165099999Y-91439999D03*
D18*
%TO.P,D14,2,A*%
%TO.N,Net-(D14-A)*%
X167640000Y-91440000D03*
%TD*%
D12*
%TO.P,J1,1,Pin_1*%
%TO.N,unconnected-(J1-Pin_1-Pad1)*%
X92719999Y-80039999D03*
D11*
%TO.P,J1,2,Pin_2*%
%TO.N,Net-(J1-Pin_2)*%
X95259999Y-80039999D03*
%TO.P,J1,3,Pin_3*%
%TO.N,/OptoIsolation/Serial_Gnd*%
X97799999Y-80039999D03*
%TO.P,J1,4,Pin_4*%
%TO.N,unconnected-(J1-Pin_4-Pad4)*%
X100339999Y-80039999D03*
%TO.P,J1,5,Pin_5*%
%TO.N,/OptoIsolation/Serial_Gnd*%
X100339999Y-72419999D03*
%TO.P,J1,6,Pin_6*%
%TO.N,unconnected-(J1-Pin_6-Pad6)*%
X97799999Y-72419999D03*
%TO.P,J1,7,Pin_7*%
%TO.N,unconnected-(J1-Pin_7-Pad7)*%
X95259999Y-72419999D03*
%TO.P,J1,8,Pin_8*%
%TO.N,/Serial/SGND*%
X92719999Y-72419999D03*
%TD*%
D10*
%TO.P,C14,1*%
%TO.N,Net-(J11-Pin_1)*%
X149860000Y-62170000D03*
%TO.P,C14,2*%
%TO.N,GND*%
X149860000Y-54670000D03*
%TD*%
D19*
%TO.P,D6,1,K*%
%TO.N,/OptoIsolation/Vcc*%
X81279999Y-81319999D03*
D20*
%TO.P,D6,2,A*%
%TO.N,Net-(D5-K)*%
X81279999Y-91479999D03*
%TD*%
D12*
%TO.P,U1,1*%
%TO.N,Net-(Q6-C)*%
X128279999Y-85084999D03*
D11*
%TO.P,U1,2*%
%TO.N,Net-(D11-A)*%
X128279999Y-87624999D03*
%TO.P,U1,3*%
%TO.N,GND*%
X135899999Y-87624999D03*
%TO.P,U1,4*%
%TO.N,Net-(Q9-B)*%
X135899999Y-85084999D03*
%TD*%
D15*
%TO.P,J5,1,Pin_1*%
%TO.N,Net-(D7-A)*%
X93979999Y-68619999D03*
D16*
%TO.P,J5,2,Pin_2*%
%TO.N,/OptoIsolation/Vcc*%
X96519999Y-68619999D03*
%TD*%
D15*
%TO.P,J15,1,Pin_1*%
%TO.N,+12V*%
X208279999Y-111759999D03*
D16*
%TO.P,J15,2,Pin_2*%
%TO.N,/Amplifier/Motor-*%
X208279999Y-114299999D03*
%TD*%
D15*
%TO.P,J2,1,Pin_1*%
%TO.N,/Serial/CD*%
X60959999Y-76219999D03*
%TD*%
D21*
%TO.P,R25,1*%
%TO.N,Net-(J11-Pin_1)*%
X144780000Y-54610000D03*
D22*
%TO.P,R25,2*%
%TO.N,/AVR/IntB*%
X144779999Y-62229999D03*
%TD*%
D19*
%TO.P,D2,1,K*%
%TO.N,/Serial/DTR*%
X66039999Y-91479999D03*
D20*
%TO.P,D2,2,A*%
%TO.N,/OptoIsolation/Serial_Gnd*%
X66039999Y-81319999D03*
%TD*%
D15*
%TO.P,J12,1,Pin_1*%
%TO.N,GND*%
X208279999Y-99059999D03*
D16*
%TO.P,J12,2,Pin_2*%
%TO.N,+12V*%
X208279999Y-96519999D03*
%TD*%
D10*
%TO.P,R10,1*%
%TO.N,+5V*%
X147320000Y-66040000D03*
D11*
%TO.P,R10,2*%
%TO.N,/Inverter/VinL*%
X147319999Y-76199999D03*
%TD*%
D15*
%TO.P,J11,1,Pin_1*%
%TO.N,Net-(J11-Pin_1)*%
X165099999Y-55879999D03*
D16*
%TO.P,J11,2,Pin_2*%
%TO.N,GND*%
X162559999Y-55879999D03*
%TO.P,J11,3,Pin_3*%
%TO.N,Net-(J11-Pin_3)*%
X160019999Y-55879999D03*
%TD*%
D10*
%TO.P,R20,1*%
%TO.N,Net-(D17-A)*%
X193040000Y-83820000D03*
D11*
%TO.P,R20,2*%
%TO.N,Net-(J8-Pin_1)*%
X182879999Y-83819999D03*
%TD*%
D10*
%TO.P,R1,1*%
%TO.N,Net-(D7-K)*%
X86360000Y-81320000D03*
D11*
%TO.P,R1,2*%
%TO.N,/Serial/SGND*%
X86359999Y-91479999D03*
%TD*%
D17*
%TO.P,D11,1,K*%
%TO.N,/OptoIsolation/Serial_Gnd*%
X124459999Y-91439999D03*
D18*
%TO.P,D11,2,A*%
%TO.N,Net-(D11-A)*%
X124460000Y-88900000D03*
%TD*%
D21*
%TO.P,R26,1*%
%TO.N,Net-(J11-Pin_3)*%
X141630000Y-54610000D03*
D22*
%TO.P,R26,2*%
%TO.N,/AVR/IntA*%
X141629999Y-62229999D03*
%TD*%
D15*
%TO.P,J3,1,Pin_1*%
%TO.N,Net-(J3-Pin_1)*%
X55879999Y-76219999D03*
D16*
%TO.P,J3,2,Pin_2*%
%TO.N,/Serial/RXD*%
X55879999Y-73679999D03*
%TO.P,J3,3,Pin_3*%
%TO.N,/Serial/TXD*%
X55879999Y-71139999D03*
%TO.P,J3,4,Pin_4*%
%TO.N,/OptoIsolation/VinL*%
X55879999Y-68599999D03*
%TD*%
D23*
%TO.P,Q5,1,C*%
%TO.N,Net-(Q5-C)*%
X124459999Y-76199999D03*
D24*
%TO.P,Q5,2,B*%
%TO.N,Net-(Q5-B)*%
X123189999Y-76199999D03*
%TO.P,Q5,3,E*%
%TO.N,/OptoIsolation/Vcc*%
X121919999Y-76199999D03*
%TD*%
D10*
%TO.P,R15,1*%
%TO.N,+5V*%
X165100000Y-124460000D03*
D11*
%TO.P,R15,2*%
%TO.N,/Inverter/VoutL*%
X165099999Y-114299999D03*
%TD*%
D10*
%TO.P,R3,1*%
%TO.N,Net-(J6-Pin_2)*%
X86360000Y-119420000D03*
D11*
%TO.P,R3,2*%
%TO.N,Net-(Q3-B)*%
X76199999Y-119419999D03*
%TD*%
D23*
%TO.P,Q2,1,C*%
%TO.N,/OptoIsolation/Serial_Gnd*%
X99059999Y-96519999D03*
D24*
%TO.P,Q2,2,B*%
%TO.N,Net-(Q1-B)*%
X100329999Y-96519999D03*
%TO.P,Q2,3,E*%
%TO.N,Net-(J3-Pin_1)*%
X101599999Y-96519999D03*
%TD*%
D17*
%TO.P,D7,1,K*%
%TO.N,Net-(D7-K)*%
X86359999Y-73699999D03*
D18*
%TO.P,D7,2,A*%
%TO.N,Net-(D7-A)*%
X86360000Y-71160000D03*
%TD*%
D10*
%TO.P,C8,1*%
%TO.N,GND*%
X174050000Y-60960000D03*
%TO.P,C8,2*%
%TO.N,Net-(U3-AREF)*%
X181550000Y-60960000D03*
%TD*%
D19*
%TO.P,D3,1,K*%
%TO.N,/Serial/RTS*%
X71119999Y-91479999D03*
D20*
%TO.P,D3,2,A*%
%TO.N,/OptoIsolation/Serial_Gnd*%
X71119999Y-81319999D03*
%TD*%
D15*
%TO.P,J16,1,Pin_1*%
%TO.N,GND*%
X205739999Y-66039999D03*
D16*
%TO.P,J16,2,Pin_2*%
X205739999Y-68579999D03*
%TO.P,J16,3,Pin_3*%
X205739999Y-71119999D03*
%TO.P,J16,4,Pin_4*%
X205739999Y-73659999D03*
%TO.P,J16,5,Pin_5*%
%TO.N,+5V*%
X208279999Y-66039999D03*
%TO.P,J16,6,Pin_6*%
X208279999Y-68579999D03*
%TO.P,J16,7,Pin_7*%
X208279999Y-71119999D03*
%TO.P,J16,8,Pin_8*%
X208279999Y-73659999D03*
%TD*%
D10*
%TO.P,R9,1*%
%TO.N,+5V*%
X142240000Y-66040000D03*
D11*
%TO.P,R9,2*%
%TO.N,Net-(Q9-B)*%
X142239999Y-76199999D03*
%TD*%
D10*
%TO.P,R19,1*%
%TO.N,+5V*%
X208280000Y-83820000D03*
D11*
%TO.P,R19,2*%
%TO.N,Net-(D17-A)*%
X198119999Y-83819999D03*
%TD*%
D13*
%TO.P,Q10,1,C*%
%TO.N,/Inverter/VinL*%
X149859999Y-83819999D03*
D14*
%TO.P,Q10,2,B*%
%TO.N,Net-(Q10-B)*%
X149859999Y-82549999D03*
%TO.P,Q10,3,E*%
%TO.N,GND*%
X149859999Y-81279999D03*
%TD*%
D10*
%TO.P,R7,1*%
%TO.N,Net-(Q7-B)*%
X116840000Y-104140000D03*
D11*
%TO.P,R7,2*%
%TO.N,/OptoIsolation/Vcc*%
X116839999Y-114299999D03*
%TD*%
D13*
%TO.P,Q13,1,C*%
%TO.N,/AVR/Rx*%
X157479999Y-109219999D03*
D14*
%TO.P,Q13,2,B*%
%TO.N,Net-(Q13-B)*%
X157479999Y-110489999D03*
%TO.P,Q13,3,E*%
%TO.N,GND*%
X157479999Y-111759999D03*
%TD*%
D19*
%TO.P,D8,1,K*%
%TO.N,/OptoIsolation/Vcc*%
X60959999Y-106719999D03*
D20*
%TO.P,D8,2,A*%
%TO.N,/Serial/TXD*%
X60959999Y-96559999D03*
%TD*%
D10*
%TO.P,R12,1*%
%TO.N,Net-(Q11-E)*%
X139700000Y-114300000D03*
D11*
%TO.P,R12,2*%
%TO.N,+5V*%
X149859999Y-114299999D03*
%TD*%
D10*
%TO.P,C13,1*%
%TO.N,GND*%
X154940000Y-62170000D03*
%TO.P,C13,2*%
%TO.N,Net-(J11-Pin_3)*%
X154940000Y-54670000D03*
%TD*%
D19*
%TO.P,D18,1,K*%
%TO.N,+12V*%
X203199999Y-109219999D03*
D20*
%TO.P,D18,2,A*%
%TO.N,/Amplifier/Motor-*%
X203199999Y-119379999D03*
%TD*%
D10*
%TO.P,C12,1*%
%TO.N,GND*%
X198040000Y-88900000D03*
%TO.P,C12,2*%
%TO.N,Net-(D17-A)*%
X193040000Y-88900000D03*
%TD*%
D13*
%TO.P,Q4,1,C*%
%TO.N,/OptoIsolation/Serial_Gnd*%
X63499999Y-116839999D03*
D14*
%TO.P,Q4,2,B*%
%TO.N,Net-(Q3-B)*%
X63499999Y-118109999D03*
%TO.P,Q4,3,E*%
%TO.N,/Serial/CTS*%
X63499999Y-119379999D03*
%TD*%
D17*
%TO.P,D12,1,K*%
%TO.N,GND*%
X139699999Y-88899999D03*
D18*
%TO.P,D12,2,A*%
%TO.N,Net-(D12-A)*%
X139700000Y-91440000D03*
%TD*%
D15*
%TO.P,J6,1,Pin_1*%
%TO.N,/Serial/RTS*%
X96519999Y-114299999D03*
D16*
%TO.P,J6,2,Pin_2*%
%TO.N,Net-(J6-Pin_2)*%
X96519999Y-111759999D03*
%TO.P,J6,3,Pin_3*%
%TO.N,/OptoIsolation/Vcc*%
X96519999Y-109219999D03*
%TO.P,J6,4,Pin_4*%
%TO.N,/OptoIsolation/Serial_Gnd*%
X96519999Y-106679999D03*
%TD*%
D17*
%TO.P,D15,1,K*%
%TO.N,Net-(D13-K)*%
X170179999Y-91439999D03*
D18*
%TO.P,D15,2,A*%
%TO.N,Net-(D15-A)*%
X172720000Y-91440000D03*
%TD*%
D21*
%TO.P,R28,1*%
%TO.N,+5V*%
X135330000Y-54610000D03*
D22*
%TO.P,R28,2*%
%TO.N,/AVR/IntB*%
X135329999Y-62229999D03*
%TD*%
D21*
%TO.P,R27,1*%
%TO.N,/AVR/IntA*%
X138480000Y-54610000D03*
D22*
%TO.P,R27,2*%
%TO.N,+5V*%
X138479999Y-62229999D03*
%TD*%
D10*
%TO.P,R23,1*%
%TO.N,/Amplifier/Motor-*%
X195580000Y-119380000D03*
D11*
%TO.P,R23,2*%
%TO.N,Net-(C10-Pad2)*%
X195579999Y-109219999D03*
%TD*%
D12*
%TO.P,U3,1,~{RESET}/PC6*%
%TO.N,Net-(D17-A)*%
X158759999Y-74919999D03*
D11*
%TO.P,U3,2,PD0*%
%TO.N,/AVR/Rx*%
X161299999Y-74919999D03*
%TO.P,U3,3,PD1*%
%TO.N,/AVR/Tx*%
X163839999Y-74919999D03*
%TO.P,U3,4,PD2*%
%TO.N,Net-(D13-A)*%
X166379999Y-74919999D03*
%TO.P,U3,5,PD3*%
%TO.N,Net-(D14-A)*%
X168919999Y-74919999D03*
%TO.P,U3,6,PD4*%
%TO.N,Net-(D15-A)*%
X171459999Y-74919999D03*
%TO.P,U3,7,VCC*%
%TO.N,+5V*%
X173999999Y-74919999D03*
%TO.P,U3,8,GND*%
%TO.N,GND*%
X176539999Y-74919999D03*
%TO.P,U3,9,XTAL1/PB6*%
%TO.N,Net-(J10-Pin_4)*%
X179079999Y-74919999D03*
%TO.P,U3,10,XTAL2/PB7*%
%TO.N,Net-(J10-Pin_5)*%
X181619999Y-74919999D03*
%TO.P,U3,11,PD5*%
%TO.N,/AVR/PWMB*%
X184159999Y-74919999D03*
%TO.P,U3,12,PD6*%
%TO.N,/AVR/PWMA*%
X186699999Y-74919999D03*
%TO.P,U3,13,PD7*%
%TO.N,Net-(J10-Pin_10)*%
X189239999Y-74919999D03*
%TO.P,U3,14,PB0*%
%TO.N,Net-(J10-Pin_1)*%
X191779999Y-74919999D03*
%TO.P,U3,15,PB1*%
%TO.N,Net-(J10-Pin_2)*%
X191779999Y-67299999D03*
%TO.P,U3,16,PB2*%
%TO.N,Net-(J10-Pin_3)*%
X189239999Y-67299999D03*
%TO.P,U3,17,PB3*%
%TO.N,Net-(J7-MOSI)*%
X186699999Y-67299999D03*
%TO.P,U3,18,PB4*%
%TO.N,Net-(J7-MISO)*%
X184159999Y-67299999D03*
%TO.P,U3,19,PB5*%
%TO.N,Net-(J7-SCK)*%
X181619999Y-67299999D03*
%TO.P,U3,20,AVCC*%
%TO.N,+5V*%
X179079999Y-67299999D03*
%TO.P,U3,21,AREF*%
%TO.N,Net-(U3-AREF)*%
X176539999Y-67299999D03*
%TO.P,U3,22,GND*%
%TO.N,GND*%
X173999999Y-67299999D03*
%TO.P,U3,23,PC0*%
%TO.N,Net-(J10-Pin_6)*%
X171459999Y-67299999D03*
%TO.P,U3,24,PC1*%
%TO.N,Net-(J10-Pin_7)*%
X168919999Y-67299999D03*
%TO.P,U3,25,PC2*%
%TO.N,Net-(J10-Pin_8)*%
X166379999Y-67299999D03*
%TO.P,U3,26,PC3*%
%TO.N,Net-(J10-Pin_9)*%
X163839999Y-67299999D03*
%TO.P,U3,27,PC4*%
%TO.N,/AVR/IntA*%
X161299999Y-67299999D03*
%TO.P,U3,28,PC5*%
%TO.N,/AVR/IntB*%
X158759999Y-67299999D03*
%TD*%
D10*
%TO.P,R4,1*%
%TO.N,Net-(Q5-C)*%
X124460000Y-66040000D03*
D11*
%TO.P,R4,2*%
%TO.N,/OptoIsolation/VinL*%
X114299999Y-66039999D03*
%TD*%
D23*
%TO.P,Q15,1,C*%
%TO.N,Net-(Q15-C)*%
X175259999Y-114299999D03*
D24*
%TO.P,Q15,2,B*%
%TO.N,Net-(Q15-B)*%
X173989999Y-114299999D03*
%TO.P,Q15,3,E*%
%TO.N,+5V*%
X172719999Y-114299999D03*
%TD*%
D19*
%TO.P,D9,1,K*%
%TO.N,/OptoIsolation/Vcc*%
X66039999Y-106719999D03*
D20*
%TO.P,D9,2,A*%
%TO.N,/Serial/DTR*%
X66039999Y-96559999D03*
%TD*%
D23*
%TO.P,Q1,1,C*%
%TO.N,/OptoIsolation/Vcc*%
X99059999Y-88899999D03*
D24*
%TO.P,Q1,2,B*%
%TO.N,Net-(Q1-B)*%
X100329999Y-88899999D03*
%TO.P,Q1,3,E*%
%TO.N,Net-(J3-Pin_1)*%
X101599999Y-88899999D03*
%TD*%
D10*
%TO.P,R22,1*%
%TO.N,Net-(Q16-B)*%
X185420000Y-119380000D03*
D11*
%TO.P,R22,2*%
%TO.N,Net-(Q15-C)*%
X175259999Y-119379999D03*
%TD*%
D17*
%TO.P,Q16,1,E*%
%TO.N,GND*%
X190499999Y-119379999D03*
D25*
%TO.P,Q16,2,C*%
%TO.N,/Amplifier/Motor-*%
X190499999Y-116839999D03*
%TO.P,Q16,3,B*%
%TO.N,Net-(Q16-B)*%
X190499999Y-114299999D03*
%TD*%
D10*
%TO.P,R6,1*%
%TO.N,/OptoIsolation/VoutL*%
X111760000Y-104140000D03*
D11*
%TO.P,R6,2*%
%TO.N,/OptoIsolation/Vcc*%
X111759999Y-114299999D03*
%TD*%
D10*
%TO.P,R11,1*%
%TO.N,+5V*%
X152400000Y-76240000D03*
D11*
%TO.P,R11,2*%
%TO.N,Net-(Q10-B)*%
X152399999Y-66079999D03*
%TD*%
D13*
%TO.P,Q14,1,C*%
%TO.N,/Inverter/VoutL*%
X165099999Y-111759999D03*
D14*
%TO.P,Q14,2,B*%
%TO.N,Net-(Q14-B)*%
X165099999Y-110489999D03*
%TO.P,Q14,3,E*%
%TO.N,GND*%
X165099999Y-109219999D03*
%TD*%
D10*
%TO.P,C2,1*%
%TO.N,/Serial/SGND*%
X86360000Y-96680000D03*
%TO.P,C2,2*%
%TO.N,/OptoIsolation/Serial_Gnd*%
X86360000Y-104180000D03*
%TD*%
%TO.P,R13,1*%
%TO.N,/Inverter/VoutL*%
X149860000Y-109220000D03*
D11*
%TO.P,R13,2*%
%TO.N,Net-(Q11-B)*%
X139699999Y-109219999D03*
%TD*%
D13*
%TO.P,Q7,1,C*%
%TO.N,/OptoIsolation/VoutL*%
X114299999Y-96519999D03*
D14*
%TO.P,Q7,2,B*%
%TO.N,Net-(Q7-B)*%
X114299999Y-97789999D03*
%TO.P,Q7,3,E*%
%TO.N,/OptoIsolation/Serial_Gnd*%
X114299999Y-99059999D03*
%TD*%
D23*
%TO.P,Q11,1,C*%
%TO.N,Net-(Q11-C)*%
X139699999Y-96519999D03*
D24*
%TO.P,Q11,2,B*%
%TO.N,Net-(Q11-B)*%
X140969999Y-96519999D03*
%TO.P,Q11,3,E*%
%TO.N,Net-(Q11-E)*%
X142239999Y-96519999D03*
%TD*%
D10*
%TO.P,C6,1*%
%TO.N,GND*%
X174050000Y-63500000D03*
%TO.P,C6,2*%
%TO.N,+5V*%
X181550000Y-63500000D03*
%TD*%
D15*
%TO.P,J7,1,MISO*%
%TO.N,Net-(J7-MISO)*%
X198119999Y-68579999D03*
D16*
%TO.P,J7,2,VCC*%
%TO.N,+5V*%
X200659999Y-68579999D03*
%TO.P,J7,3,SCK*%
%TO.N,Net-(J7-SCK)*%
X198119999Y-71119999D03*
%TO.P,J7,4,MOSI*%
%TO.N,Net-(J7-MOSI)*%
X200659999Y-71119999D03*
%TO.P,J7,5,~{RST}*%
%TO.N,Net-(D17-A)*%
X198119999Y-73659999D03*
%TO.P,J7,6,GND*%
%TO.N,GND*%
X200659999Y-73659999D03*
%TD*%
D23*
%TO.P,Q12,1,C*%
%TO.N,Net-(Q11-B)*%
X139699999Y-104139999D03*
D24*
%TO.P,Q12,2,B*%
%TO.N,Net-(Q11-E)*%
X140969999Y-104139999D03*
%TO.P,Q12,3,E*%
%TO.N,+5V*%
X142239999Y-104139999D03*
%TD*%
D10*
%TO.P,R16,1*%
%TO.N,/AVR/Rx*%
X157480000Y-106680000D03*
D11*
%TO.P,R16,2*%
%TO.N,+5V*%
X157479999Y-96519999D03*
%TD*%
D15*
%TO.P,J9,1,Pin_1*%
%TO.N,/AVR/PWMA*%
X185419999Y-101599999D03*
D16*
%TO.P,J9,2,Pin_2*%
%TO.N,/AVR/PWMB*%
X182879999Y-101599999D03*
%TO.P,J9,3,Pin_3*%
%TO.N,+12V*%
X180339999Y-101599999D03*
%TO.P,J9,4,Pin_4*%
%TO.N,GND*%
X177799999Y-101599999D03*
%TD*%
D13*
%TO.P,Q9,1,C*%
%TO.N,Net-(Q10-B)*%
X142239999Y-83819999D03*
D14*
%TO.P,Q9,2,B*%
%TO.N,Net-(Q9-B)*%
X142239999Y-82549999D03*
%TO.P,Q9,3,E*%
%TO.N,GND*%
X142239999Y-81279999D03*
%TD*%
D10*
%TO.P,C10,1*%
%TO.N,+12V*%
X203200000Y-104140000D03*
%TO.P,C10,2*%
%TO.N,Net-(C10-Pad2)*%
X195700000Y-104140000D03*
%TD*%
D19*
%TO.P,D5,1,K*%
%TO.N,Net-(D5-K)*%
X81279999Y-96559999D03*
D20*
%TO.P,D5,2,A*%
%TO.N,/Serial/SGND*%
X81279999Y-106719999D03*
%TD*%
D15*
%TO.P,J14,1,Pin_1*%
%TO.N,/Serial/CD*%
X55879999Y-94019999D03*
D16*
%TO.P,J14,2,Pin_2*%
%TO.N,/Serial/RXD*%
X55879999Y-96559999D03*
%TO.P,J14,3,Pin_3*%
%TO.N,/Serial/TXD*%
X55879999Y-99099999D03*
%TO.P,J14,4,Pin_4*%
%TO.N,/Serial/DTR*%
X55879999Y-101639999D03*
%TO.P,J14,5,Pin_5*%
%TO.N,/Serial/SGND*%
X55879999Y-104179999D03*
%TO.P,J14,6,Pin_6*%
%TO.N,/Serial/RTS*%
X55879999Y-106719999D03*
%TO.P,J14,7,Pin_7*%
%TO.N,/Serial/CTS*%
X55879999Y-109259999D03*
%TD*%
D12*
%TO.P,C1,1*%
%TO.N,Net-(D5-K)*%
X91439999Y-88939999D03*
D10*
%TO.P,C1,2*%
%TO.N,Net-(J1-Pin_2)*%
X91440000Y-86440000D03*
%TD*%
%TO.P,R5,1*%
%TO.N,/OptoIsolation/Vcc*%
X114300000Y-71120000D03*
D11*
%TO.P,R5,2*%
%TO.N,Net-(Q5-B)*%
X124459999Y-71119999D03*
%TD*%
D12*
%TO.P,C9,1*%
%TO.N,+12V*%
X198119999Y-96559999D03*
D10*
%TO.P,C9,2*%
%TO.N,GND*%
X198120000Y-99060000D03*
%TD*%
%TO.P,R8,1*%
%TO.N,Net-(Q8-B)*%
X121920000Y-104140000D03*
D11*
%TO.P,R8,2*%
%TO.N,/OptoIsolation/Vcc*%
X121919999Y-114299999D03*
%TD*%
D19*
%TO.P,D4,1,K*%
%TO.N,/Serial/SGND*%
X76199999Y-81319999D03*
D20*
%TO.P,D4,2,A*%
%TO.N,/OptoIsolation/Serial_Gnd*%
X76199999Y-91479999D03*
%TD*%
D19*
%TO.P,D1,1,K*%
%TO.N,/Serial/TXD*%
X60959999Y-91479999D03*
D20*
%TO.P,D1,2,A*%
%TO.N,/OptoIsolation/Serial_Gnd*%
X60959999Y-81319999D03*
%TD*%
D17*
%TO.P,D16,1,K*%
%TO.N,Net-(D16-K)*%
X149859999Y-91479999D03*
D18*
%TO.P,D16,2,A*%
%TO.N,+5V*%
X149860000Y-88940000D03*
%TD*%
D17*
%TO.P,D13,1,K*%
%TO.N,Net-(D13-K)*%
X160019999Y-91439999D03*
D18*
%TO.P,D13,2,A*%
%TO.N,Net-(D13-A)*%
X162560000Y-91440000D03*
%TD*%
D15*
%TO.P,J8,1,Pin_1*%
%TO.N,Net-(J8-Pin_1)*%
X177799999Y-83819999D03*
D16*
%TO.P,J8,2,Pin_2*%
%TO.N,GND*%
X175259999Y-83819999D03*
%TD*%
D19*
%TO.P,D10,1,K*%
%TO.N,/OptoIsolation/Vcc*%
X71119999Y-106719999D03*
D20*
%TO.P,D10,2,A*%
%TO.N,/Serial/RTS*%
X71119999Y-96559999D03*
%TD*%
D12*
%TO.P,C4,1*%
%TO.N,+5V*%
X206969999Y-55879999D03*
D10*
%TO.P,C4,2*%
%TO.N,GND*%
X204470000Y-55880000D03*
%TD*%
D13*
%TO.P,Q3,1,C*%
%TO.N,/OptoIsolation/Vcc*%
X71119999Y-116839999D03*
D14*
%TO.P,Q3,2,B*%
%TO.N,Net-(Q3-B)*%
X71119999Y-118109999D03*
%TO.P,Q3,3,E*%
%TO.N,/Serial/CTS*%
X71119999Y-119379999D03*
%TD*%
D10*
%TO.P,C7,1*%
%TO.N,GND*%
X181550000Y-78740000D03*
%TO.P,C7,2*%
%TO.N,+5V*%
X174050000Y-78740000D03*
%TD*%
D19*
%TO.P,D17,1,K*%
%TO.N,+5V*%
X208279999Y-78739999D03*
D20*
%TO.P,D17,2,A*%
%TO.N,Net-(D17-A)*%
X198119999Y-78739999D03*
%TD*%
D10*
%TO.P,R14,1*%
%TO.N,/Inverter/VinL*%
X157480000Y-124460000D03*
D11*
%TO.P,R14,2*%
%TO.N,Net-(Q13-B)*%
X157479999Y-114299999D03*
%TD*%
D10*
%TO.P,R17,1*%
%TO.N,Net-(Q14-B)*%
X165100000Y-106680000D03*
D11*
%TO.P,R17,2*%
%TO.N,/AVR/Tx*%
X165099999Y-96519999D03*
%TD*%
D10*
%TO.P,C11,1*%
%TO.N,GND*%
X203200000Y-100270000D03*
%TO.P,C11,2*%
%TO.N,+12V*%
X203200000Y-92770000D03*
%TD*%
D23*
%TO.P,Q6,1,C*%
%TO.N,Net-(Q6-C)*%
X124459999Y-83819999D03*
D24*
%TO.P,Q6,2,B*%
%TO.N,Net-(Q5-C)*%
X123189999Y-83819999D03*
%TO.P,Q6,3,E*%
%TO.N,Net-(Q5-B)*%
X121919999Y-83819999D03*
%TD*%
D26*
%TO.P,U4,1,GND*%
%TO.N,GND*%
X177799999Y-96519999D03*
D27*
%TO.P,U4,2,VO*%
%TO.N,+5V*%
X180339999Y-96519999D03*
%TO.P,U4,3,VI*%
%TO.N,+12V*%
X182879999Y-96519999D03*
%TD*%
D28*
%TO.N,Net-(D17-A)*%
X187960000Y-81320000D03*
X160020000Y-78780000D03*
%TO.N,Net-(D5-K)*%
X88900000Y-88940000D03*
%TO.N,/AVR/Rx*%
X161290000Y-93980000D03*
X161290000Y-88900000D03*
%TO.N,/AVR/Tx*%
X163830000Y-93980000D03*
X163830000Y-88900000D03*
%TO.N,Net-(J3-Pin_1)*%
X57897700Y-78257700D03*
X96520000Y-83860000D03*
%TO.N,Net-(J10-Pin_1)*%
X195580000Y-73700000D03*
X195580000Y-66080000D03*
%TO.N,Net-(J10-Pin_5)*%
X182880000Y-58460000D03*
X182880000Y-71160000D03*
%TO.N,Net-(J10-Pin_10)*%
X182880000Y-73700000D03*
X167640000Y-58460000D03*
%TD*%
D29*
%TO.N,Net-(D17-A)*%
X162560000Y-81320000D02*
X160020000Y-78780000D01*
X187960000Y-81320000D02*
X162560000Y-81320000D01*
%TO.N,Net-(D5-K)*%
X88900000Y-88940000D02*
X83820000Y-88940000D01*
X83820000Y-88940000D02*
X81280000Y-91480000D01*
%TO.N,/AVR/Rx*%
X161290000Y-88900000D02*
X161290000Y-93980000D01*
X157637082Y-109220000D02*
X157480000Y-109220000D01*
%TO.N,/AVR/Tx*%
X163830000Y-88900000D02*
X163830000Y-93980000D01*
%TO.N,Net-(J3-Pin_1)*%
X57897700Y-78257700D02*
X87527700Y-78257700D01*
X93130000Y-83860000D02*
X96520000Y-83860000D01*
X87527700Y-78257700D02*
X93130000Y-83860000D01*
%TO.N,Net-(J10-Pin_1)*%
X195580000Y-73700000D02*
X195580000Y-66080000D01*
%TO.N,Net-(J10-Pin_5)*%
X182880000Y-71160000D02*
X182880000Y-58460000D01*
%TO.N,Net-(J10-Pin_10)*%
X182880000Y-73700000D02*
X181349009Y-73700000D01*
X175125000Y-67475991D02*
X175125000Y-66834009D01*
X167640000Y-59349009D02*
X167640000Y-58460000D01*
X181349009Y-73700000D02*
X175125000Y-67475991D01*
X175125000Y-66834009D02*
X167640000Y-59349009D01*
%TD*%
M02*
