%TF.GenerationSoftware,KiCad,Pcbnew,(7.0.0)*%
%TF.CreationDate,2023-05-24T11:09:11+02:00*%
%TF.ProjectId,Precision-Lapping-Machine,50726563-6973-4696-9f6e-2d4c61707069,rev?*%
%TF.SameCoordinates,Original*%
%TF.FileFunction,Copper,L4,Bot*%
%TF.FilePolarity,Positive*%
%FSLAX46Y46*%
G04 Gerber Fmt 4.6, Leading zero omitted, Abs format (unit mm)*
G04 Created by KiCad (PCBNEW (7.0.0)) date 2023-05-24 11:09:11*
%MOMM*%
%LPD*%
G01*
G04 APERTURE LIST*
%TA.AperFunction,ComponentPad*%
%ADD10C,1.600000*%
%TD*%
%TA.AperFunction,ComponentPad*%
%ADD11O,1.600000X1.600000*%
%TD*%
%TA.AperFunction,ComponentPad*%
%ADD12R,1.600000X1.600000*%
%TD*%
%TA.AperFunction,ComponentPad*%
%ADD13R,1.500000X1.050000*%
%TD*%
%TA.AperFunction,ComponentPad*%
%ADD14O,1.500000X1.050000*%
%TD*%
%TA.AperFunction,ComponentPad*%
%ADD15R,1.700000X1.700000*%
%TD*%
%TA.AperFunction,ComponentPad*%
%ADD16O,1.700000X1.700000*%
%TD*%
%TA.AperFunction,ComponentPad*%
%ADD17R,1.800000X1.800000*%
%TD*%
%TA.AperFunction,ComponentPad*%
%ADD18C,1.800000*%
%TD*%
%TA.AperFunction,ComponentPad*%
%ADD19R,2.200000X2.200000*%
%TD*%
%TA.AperFunction,ComponentPad*%
%ADD20O,2.200000X2.200000*%
%TD*%
%TA.AperFunction,ComponentPad*%
%ADD21C,1.400000*%
%TD*%
%TA.AperFunction,ComponentPad*%
%ADD22O,1.400000X1.400000*%
%TD*%
%TA.AperFunction,ComponentPad*%
%ADD23R,1.050000X1.500000*%
%TD*%
%TA.AperFunction,ComponentPad*%
%ADD24O,1.050000X1.500000*%
%TD*%
%TA.AperFunction,ComponentPad*%
%ADD25O,1.800000X1.800000*%
%TD*%
%TA.AperFunction,ComponentPad*%
%ADD26R,1.905000X2.000000*%
%TD*%
%TA.AperFunction,ComponentPad*%
%ADD27O,1.905000X2.000000*%
%TD*%
%TA.AperFunction,ViaPad*%
%ADD28C,0.800000*%
%TD*%
%TA.AperFunction,Conductor*%
%ADD29C,0.250000*%
%TD*%
G04 APERTURE END LIST*
D10*
%TO.P,R18,1*%
%TO.N,Net-(D13-K)*%
X157480000Y-91480000D03*
D11*
%TO.P,R18,2*%
%TO.N,GND*%
X157479999Y-81319999D03*
%TD*%
D10*
%TO.P,R21,1*%
%TO.N,/AVR/PWMA*%
X185420000Y-109220000D03*
D11*
%TO.P,R21,2*%
%TO.N,Net-(Q15-B)*%
X175259999Y-109219999D03*
%TD*%
D10*
%TO.P,R24,1*%
%TO.N,Net-(D16-K)*%
X149860000Y-94020000D03*
D11*
%TO.P,R24,2*%
%TO.N,GND*%
X149859999Y-104179999D03*
%TD*%
D12*
%TO.P,U2,1*%
%TO.N,Net-(Q11-C)*%
X135879999Y-95254999D03*
D11*
%TO.P,U2,2*%
%TO.N,Net-(D12-A)*%
X135879999Y-92714999D03*
%TO.P,U2,3*%
%TO.N,/OptoIsolation/Serial_Gnd*%
X128259999Y-92714999D03*
%TO.P,U2,4*%
%TO.N,Net-(Q8-B)*%
X128259999Y-95254999D03*
%TD*%
D13*
%TO.P,Q8,1,C*%
%TO.N,Net-(Q7-B)*%
X121919999Y-96519999D03*
D14*
%TO.P,Q8,2,B*%
%TO.N,Net-(Q8-B)*%
X121919999Y-97789999D03*
%TO.P,Q8,3,E*%
%TO.N,/OptoIsolation/Serial_Gnd*%
X121919999Y-99059999D03*
%TD*%
D15*
%TO.P,J10,1,Pin_1*%
%TO.N,Net-(J10-Pin_1)*%
X193039999Y-55879999D03*
D16*
%TO.P,J10,2,Pin_2*%
%TO.N,Net-(J10-Pin_2)*%
X190499999Y-55879999D03*
%TO.P,J10,3,Pin_3*%
%TO.N,Net-(J10-Pin_3)*%
X187959999Y-55879999D03*
%TO.P,J10,4,Pin_4*%
%TO.N,Net-(J10-Pin_4)*%
X185419999Y-55879999D03*
%TO.P,J10,5,Pin_5*%
%TO.N,Net-(J10-Pin_5)*%
X182879999Y-55879999D03*
%TO.P,J10,6,Pin_6*%
%TO.N,Net-(J10-Pin_6)*%
X180339999Y-55879999D03*
%TO.P,J10,7,Pin_7*%
%TO.N,Net-(J10-Pin_7)*%
X177799999Y-55879999D03*
%TO.P,J10,8,Pin_8*%
%TO.N,Net-(J10-Pin_8)*%
X175259999Y-55879999D03*
%TO.P,J10,9,Pin_9*%
%TO.N,Net-(J10-Pin_9)*%
X172719999Y-55879999D03*
%TO.P,J10,10,Pin_10*%
%TO.N,Net-(J10-Pin_10)*%
X170179999Y-55879999D03*
%TD*%
D15*
%TO.P,J4,1,Pin_1*%
%TO.N,/Serial/DTR*%
X60959999Y-68599999D03*
%TD*%
D10*
%TO.P,C5,1*%
%TO.N,GND*%
X201990000Y-60960000D03*
%TO.P,C5,2*%
%TO.N,+5V*%
X209490000Y-60960000D03*
%TD*%
%TO.P,R2,1*%
%TO.N,/OptoIsolation/VoutL*%
X106680000Y-101640000D03*
D11*
%TO.P,R2,2*%
%TO.N,Net-(Q1-B)*%
X96519999Y-101639999D03*
%TD*%
D12*
%TO.P,C3,1*%
%TO.N,/OptoIsolation/Vcc*%
X91439999Y-99124887D03*
D10*
%TO.P,C3,2*%
%TO.N,/OptoIsolation/Serial_Gnd*%
X91440000Y-96624888D03*
%TD*%
D17*
%TO.P,D14,1,K*%
%TO.N,Net-(D13-K)*%
X165099999Y-91439999D03*
D18*
%TO.P,D14,2,A*%
%TO.N,Net-(D14-A)*%
X167640000Y-91440000D03*
%TD*%
D12*
%TO.P,J1,1,Pin_1*%
%TO.N,unconnected-(J1-Pin_1-Pad1)*%
X92719999Y-80039999D03*
D11*
%TO.P,J1,2,Pin_2*%
%TO.N,Net-(J1-Pin_2)*%
X95259999Y-80039999D03*
%TO.P,J1,3,Pin_3*%
%TO.N,/OptoIsolation/Serial_Gnd*%
X97799999Y-80039999D03*
%TO.P,J1,4,Pin_4*%
%TO.N,unconnected-(J1-Pin_4-Pad4)*%
X100339999Y-80039999D03*
%TO.P,J1,5,Pin_5*%
%TO.N,/OptoIsolation/Serial_Gnd*%
X100339999Y-72419999D03*
%TO.P,J1,6,Pin_6*%
%TO.N,unconnected-(J1-Pin_6-Pad6)*%
X97799999Y-72419999D03*
%TO.P,J1,7,Pin_7*%
%TO.N,unconnected-(J1-Pin_7-Pad7)*%
X95259999Y-72419999D03*
%TO.P,J1,8,Pin_8*%
%TO.N,/Serial/SGND*%
X92719999Y-72419999D03*
%TD*%
D10*
%TO.P,C14,1*%
%TO.N,Net-(J11-Pin_1)*%
X149860000Y-62170000D03*
%TO.P,C14,2*%
%TO.N,GND*%
X149860000Y-54670000D03*
%TD*%
D19*
%TO.P,D6,1,K*%
%TO.N,/OptoIsolation/Vcc*%
X81279999Y-81319999D03*
D20*
%TO.P,D6,2,A*%
%TO.N,Net-(D5-K)*%
X81279999Y-91479999D03*
%TD*%
D12*
%TO.P,U1,1*%
%TO.N,Net-(Q6-C)*%
X128279999Y-85084999D03*
D11*
%TO.P,U1,2*%
%TO.N,Net-(D11-A)*%
X128279999Y-87624999D03*
%TO.P,U1,3*%
%TO.N,GND*%
X135899999Y-87624999D03*
%TO.P,U1,4*%
%TO.N,Net-(Q9-B)*%
X135899999Y-85084999D03*
%TD*%
D15*
%TO.P,J5,1,Pin_1*%
%TO.N,Net-(D7-A)*%
X93979999Y-68619999D03*
D16*
%TO.P,J5,2,Pin_2*%
%TO.N,/OptoIsolation/Vcc*%
X96519999Y-68619999D03*
%TD*%
D15*
%TO.P,J15,1,Pin_1*%
%TO.N,+12V*%
X208279999Y-111759999D03*
D16*
%TO.P,J15,2,Pin_2*%
%TO.N,/Amplifier/Motor-*%
X208279999Y-114299999D03*
%TD*%
D15*
%TO.P,J2,1,Pin_1*%
%TO.N,/Serial/CD*%
X60959999Y-76219999D03*
%TD*%
D21*
%TO.P,R25,1*%
%TO.N,Net-(J11-Pin_1)*%
X144780000Y-54610000D03*
D22*
%TO.P,R25,2*%
%TO.N,/AVR/IntB*%
X144779999Y-62229999D03*
%TD*%
D19*
%TO.P,D2,1,K*%
%TO.N,/Serial/DTR*%
X66039999Y-91479999D03*
D20*
%TO.P,D2,2,A*%
%TO.N,/OptoIsolation/Serial_Gnd*%
X66039999Y-81319999D03*
%TD*%
D15*
%TO.P,J12,1,Pin_1*%
%TO.N,GND*%
X208279999Y-99059999D03*
D16*
%TO.P,J12,2,Pin_2*%
%TO.N,+12V*%
X208279999Y-96519999D03*
%TD*%
D10*
%TO.P,R10,1*%
%TO.N,+5V*%
X147320000Y-66040000D03*
D11*
%TO.P,R10,2*%
%TO.N,/Inverter/VinL*%
X147319999Y-76199999D03*
%TD*%
D15*
%TO.P,J11,1,Pin_1*%
%TO.N,Net-(J11-Pin_1)*%
X165099999Y-55879999D03*
D16*
%TO.P,J11,2,Pin_2*%
%TO.N,GND*%
X162559999Y-55879999D03*
%TO.P,J11,3,Pin_3*%
%TO.N,Net-(J11-Pin_3)*%
X160019999Y-55879999D03*
%TD*%
D10*
%TO.P,R20,1*%
%TO.N,Net-(D17-A)*%
X193040000Y-83820000D03*
D11*
%TO.P,R20,2*%
%TO.N,Net-(J8-Pin_1)*%
X182879999Y-83819999D03*
%TD*%
D10*
%TO.P,R1,1*%
%TO.N,Net-(D7-K)*%
X86360000Y-81320000D03*
D11*
%TO.P,R1,2*%
%TO.N,/Serial/SGND*%
X86359999Y-91479999D03*
%TD*%
D17*
%TO.P,D11,1,K*%
%TO.N,/OptoIsolation/Serial_Gnd*%
X124459999Y-91439999D03*
D18*
%TO.P,D11,2,A*%
%TO.N,Net-(D11-A)*%
X124460000Y-88900000D03*
%TD*%
D21*
%TO.P,R26,1*%
%TO.N,Net-(J11-Pin_3)*%
X141630000Y-54610000D03*
D22*
%TO.P,R26,2*%
%TO.N,/AVR/IntA*%
X141629999Y-62229999D03*
%TD*%
D15*
%TO.P,J3,1,Pin_1*%
%TO.N,Net-(J3-Pin_1)*%
X55879999Y-76219999D03*
D16*
%TO.P,J3,2,Pin_2*%
%TO.N,/Serial/RXD*%
X55879999Y-73679999D03*
%TO.P,J3,3,Pin_3*%
%TO.N,/Serial/TXD*%
X55879999Y-71139999D03*
%TO.P,J3,4,Pin_4*%
%TO.N,/OptoIsolation/VinL*%
X55879999Y-68599999D03*
%TD*%
D23*
%TO.P,Q5,1,C*%
%TO.N,Net-(Q5-C)*%
X124459999Y-76199999D03*
D24*
%TO.P,Q5,2,B*%
%TO.N,Net-(Q5-B)*%
X123189999Y-76199999D03*
%TO.P,Q5,3,E*%
%TO.N,/OptoIsolation/Vcc*%
X121919999Y-76199999D03*
%TD*%
D10*
%TO.P,R15,1*%
%TO.N,+5V*%
X165100000Y-124460000D03*
D11*
%TO.P,R15,2*%
%TO.N,/Inverter/VoutL*%
X165099999Y-114299999D03*
%TD*%
D10*
%TO.P,R3,1*%
%TO.N,Net-(J6-Pin_2)*%
X86360000Y-119420000D03*
D11*
%TO.P,R3,2*%
%TO.N,Net-(Q3-B)*%
X76199999Y-119419999D03*
%TD*%
D23*
%TO.P,Q2,1,C*%
%TO.N,/OptoIsolation/Serial_Gnd*%
X99059999Y-96519999D03*
D24*
%TO.P,Q2,2,B*%
%TO.N,Net-(Q1-B)*%
X100329999Y-96519999D03*
%TO.P,Q2,3,E*%
%TO.N,Net-(J3-Pin_1)*%
X101599999Y-96519999D03*
%TD*%
D17*
%TO.P,D7,1,K*%
%TO.N,Net-(D7-K)*%
X86359999Y-73699999D03*
D18*
%TO.P,D7,2,A*%
%TO.N,Net-(D7-A)*%
X86360000Y-71160000D03*
%TD*%
D10*
%TO.P,C8,1*%
%TO.N,GND*%
X174050000Y-60960000D03*
%TO.P,C8,2*%
%TO.N,Net-(U3-AREF)*%
X181550000Y-60960000D03*
%TD*%
D19*
%TO.P,D3,1,K*%
%TO.N,/Serial/RTS*%
X71119999Y-91479999D03*
D20*
%TO.P,D3,2,A*%
%TO.N,/OptoIsolation/Serial_Gnd*%
X71119999Y-81319999D03*
%TD*%
D15*
%TO.P,J16,1,Pin_1*%
%TO.N,GND*%
X205739999Y-66039999D03*
D16*
%TO.P,J16,2,Pin_2*%
X205739999Y-68579999D03*
%TO.P,J16,3,Pin_3*%
X205739999Y-71119999D03*
%TO.P,J16,4,Pin_4*%
X205739999Y-73659999D03*
%TO.P,J16,5,Pin_5*%
%TO.N,+5V*%
X208279999Y-66039999D03*
%TO.P,J16,6,Pin_6*%
X208279999Y-68579999D03*
%TO.P,J16,7,Pin_7*%
X208279999Y-71119999D03*
%TO.P,J16,8,Pin_8*%
X208279999Y-73659999D03*
%TD*%
D10*
%TO.P,R9,1*%
%TO.N,+5V*%
X142240000Y-66040000D03*
D11*
%TO.P,R9,2*%
%TO.N,Net-(Q9-B)*%
X142239999Y-76199999D03*
%TD*%
D10*
%TO.P,R19,1*%
%TO.N,+5V*%
X208280000Y-83820000D03*
D11*
%TO.P,R19,2*%
%TO.N,Net-(D17-A)*%
X198119999Y-83819999D03*
%TD*%
D13*
%TO.P,Q10,1,C*%
%TO.N,/Inverter/VinL*%
X149859999Y-83819999D03*
D14*
%TO.P,Q10,2,B*%
%TO.N,Net-(Q10-B)*%
X149859999Y-82549999D03*
%TO.P,Q10,3,E*%
%TO.N,GND*%
X149859999Y-81279999D03*
%TD*%
D10*
%TO.P,R7,1*%
%TO.N,Net-(Q7-B)*%
X116840000Y-104140000D03*
D11*
%TO.P,R7,2*%
%TO.N,/OptoIsolation/Vcc*%
X116839999Y-114299999D03*
%TD*%
D13*
%TO.P,Q13,1,C*%
%TO.N,/AVR/Rx*%
X157479999Y-109219999D03*
D14*
%TO.P,Q13,2,B*%
%TO.N,Net-(Q13-B)*%
X157479999Y-110489999D03*
%TO.P,Q13,3,E*%
%TO.N,GND*%
X157479999Y-111759999D03*
%TD*%
D19*
%TO.P,D8,1,K*%
%TO.N,/OptoIsolation/Vcc*%
X60959999Y-106719999D03*
D20*
%TO.P,D8,2,A*%
%TO.N,/Serial/TXD*%
X60959999Y-96559999D03*
%TD*%
D10*
%TO.P,R12,1*%
%TO.N,Net-(Q11-E)*%
X139700000Y-114300000D03*
D11*
%TO.P,R12,2*%
%TO.N,+5V*%
X149859999Y-114299999D03*
%TD*%
D10*
%TO.P,C13,1*%
%TO.N,GND*%
X154940000Y-62170000D03*
%TO.P,C13,2*%
%TO.N,Net-(J11-Pin_3)*%
X154940000Y-54670000D03*
%TD*%
D19*
%TO.P,D18,1,K*%
%TO.N,+12V*%
X203199999Y-109219999D03*
D20*
%TO.P,D18,2,A*%
%TO.N,/Amplifier/Motor-*%
X203199999Y-119379999D03*
%TD*%
D10*
%TO.P,C12,1*%
%TO.N,GND*%
X198040000Y-88900000D03*
%TO.P,C12,2*%
%TO.N,Net-(D17-A)*%
X193040000Y-88900000D03*
%TD*%
D13*
%TO.P,Q4,1,C*%
%TO.N,/OptoIsolation/Serial_Gnd*%
X63499999Y-116839999D03*
D14*
%TO.P,Q4,2,B*%
%TO.N,Net-(Q3-B)*%
X63499999Y-118109999D03*
%TO.P,Q4,3,E*%
%TO.N,/Serial/CTS*%
X63499999Y-119379999D03*
%TD*%
D17*
%TO.P,D12,1,K*%
%TO.N,GND*%
X139699999Y-88899999D03*
D18*
%TO.P,D12,2,A*%
%TO.N,Net-(D12-A)*%
X139700000Y-91440000D03*
%TD*%
D15*
%TO.P,J6,1,Pin_1*%
%TO.N,/Serial/RTS*%
X96519999Y-114299999D03*
D16*
%TO.P,J6,2,Pin_2*%
%TO.N,Net-(J6-Pin_2)*%
X96519999Y-111759999D03*
%TO.P,J6,3,Pin_3*%
%TO.N,/OptoIsolation/Vcc*%
X96519999Y-109219999D03*
%TO.P,J6,4,Pin_4*%
%TO.N,/OptoIsolation/Serial_Gnd*%
X96519999Y-106679999D03*
%TD*%
D17*
%TO.P,D15,1,K*%
%TO.N,Net-(D13-K)*%
X170179999Y-91439999D03*
D18*
%TO.P,D15,2,A*%
%TO.N,Net-(D15-A)*%
X172720000Y-91440000D03*
%TD*%
D21*
%TO.P,R28,1*%
%TO.N,+5V*%
X135330000Y-54610000D03*
D22*
%TO.P,R28,2*%
%TO.N,/AVR/IntB*%
X135329999Y-62229999D03*
%TD*%
D21*
%TO.P,R27,1*%
%TO.N,/AVR/IntA*%
X138480000Y-54610000D03*
D22*
%TO.P,R27,2*%
%TO.N,+5V*%
X138479999Y-62229999D03*
%TD*%
D10*
%TO.P,R23,1*%
%TO.N,/Amplifier/Motor-*%
X195580000Y-119380000D03*
D11*
%TO.P,R23,2*%
%TO.N,Net-(C10-Pad2)*%
X195579999Y-109219999D03*
%TD*%
D12*
%TO.P,U3,1,~{RESET}/PC6*%
%TO.N,Net-(D17-A)*%
X158759999Y-74919999D03*
D11*
%TO.P,U3,2,PD0*%
%TO.N,/AVR/Rx*%
X161299999Y-74919999D03*
%TO.P,U3,3,PD1*%
%TO.N,/AVR/Tx*%
X163839999Y-74919999D03*
%TO.P,U3,4,PD2*%
%TO.N,Net-(D13-A)*%
X166379999Y-74919999D03*
%TO.P,U3,5,PD3*%
%TO.N,Net-(D14-A)*%
X168919999Y-74919999D03*
%TO.P,U3,6,PD4*%
%TO.N,Net-(D15-A)*%
X171459999Y-74919999D03*
%TO.P,U3,7,VCC*%
%TO.N,+5V*%
X173999999Y-74919999D03*
%TO.P,U3,8,GND*%
%TO.N,GND*%
X176539999Y-74919999D03*
%TO.P,U3,9,XTAL1/PB6*%
%TO.N,Net-(J10-Pin_4)*%
X179079999Y-74919999D03*
%TO.P,U3,10,XTAL2/PB7*%
%TO.N,Net-(J10-Pin_5)*%
X181619999Y-74919999D03*
%TO.P,U3,11,PD5*%
%TO.N,/AVR/PWMB*%
X184159999Y-74919999D03*
%TO.P,U3,12,PD6*%
%TO.N,/AVR/PWMA*%
X186699999Y-74919999D03*
%TO.P,U3,13,PD7*%
%TO.N,Net-(J10-Pin_10)*%
X189239999Y-74919999D03*
%TO.P,U3,14,PB0*%
%TO.N,Net-(J10-Pin_1)*%
X191779999Y-74919999D03*
%TO.P,U3,15,PB1*%
%TO.N,Net-(J10-Pin_2)*%
X191779999Y-67299999D03*
%TO.P,U3,16,PB2*%
%TO.N,Net-(J10-Pin_3)*%
X189239999Y-67299999D03*
%TO.P,U3,17,PB3*%
%TO.N,Net-(J7-MOSI)*%
X186699999Y-67299999D03*
%TO.P,U3,18,PB4*%
%TO.N,Net-(J7-MISO)*%
X184159999Y-67299999D03*
%TO.P,U3,19,PB5*%
%TO.N,Net-(J7-SCK)*%
X181619999Y-67299999D03*
%TO.P,U3,20,AVCC*%
%TO.N,+5V*%
X179079999Y-67299999D03*
%TO.P,U3,21,AREF*%
%TO.N,Net-(U3-AREF)*%
X176539999Y-67299999D03*
%TO.P,U3,22,GND*%
%TO.N,GND*%
X173999999Y-67299999D03*
%TO.P,U3,23,PC0*%
%TO.N,Net-(J10-Pin_6)*%
X171459999Y-67299999D03*
%TO.P,U3,24,PC1*%
%TO.N,Net-(J10-Pin_7)*%
X168919999Y-67299999D03*
%TO.P,U3,25,PC2*%
%TO.N,Net-(J10-Pin_8)*%
X166379999Y-67299999D03*
%TO.P,U3,26,PC3*%
%TO.N,Net-(J10-Pin_9)*%
X163839999Y-67299999D03*
%TO.P,U3,27,PC4*%
%TO.N,/AVR/IntA*%
X161299999Y-67299999D03*
%TO.P,U3,28,PC5*%
%TO.N,/AVR/IntB*%
X158759999Y-67299999D03*
%TD*%
D10*
%TO.P,R4,1*%
%TO.N,Net-(Q5-C)*%
X124460000Y-66040000D03*
D11*
%TO.P,R4,2*%
%TO.N,/OptoIsolation/VinL*%
X114299999Y-66039999D03*
%TD*%
D23*
%TO.P,Q15,1,C*%
%TO.N,Net-(Q15-C)*%
X175259999Y-114299999D03*
D24*
%TO.P,Q15,2,B*%
%TO.N,Net-(Q15-B)*%
X173989999Y-114299999D03*
%TO.P,Q15,3,E*%
%TO.N,+5V*%
X172719999Y-114299999D03*
%TD*%
D19*
%TO.P,D9,1,K*%
%TO.N,/OptoIsolation/Vcc*%
X66039999Y-106719999D03*
D20*
%TO.P,D9,2,A*%
%TO.N,/Serial/DTR*%
X66039999Y-96559999D03*
%TD*%
D23*
%TO.P,Q1,1,C*%
%TO.N,/OptoIsolation/Vcc*%
X99059999Y-88899999D03*
D24*
%TO.P,Q1,2,B*%
%TO.N,Net-(Q1-B)*%
X100329999Y-88899999D03*
%TO.P,Q1,3,E*%
%TO.N,Net-(J3-Pin_1)*%
X101599999Y-88899999D03*
%TD*%
D10*
%TO.P,R22,1*%
%TO.N,Net-(Q16-B)*%
X185420000Y-119380000D03*
D11*
%TO.P,R22,2*%
%TO.N,Net-(Q15-C)*%
X175259999Y-119379999D03*
%TD*%
D17*
%TO.P,Q16,1,E*%
%TO.N,GND*%
X190499999Y-119379999D03*
D25*
%TO.P,Q16,2,C*%
%TO.N,/Amplifier/Motor-*%
X190499999Y-116839999D03*
%TO.P,Q16,3,B*%
%TO.N,Net-(Q16-B)*%
X190499999Y-114299999D03*
%TD*%
D10*
%TO.P,R6,1*%
%TO.N,/OptoIsolation/VoutL*%
X111760000Y-104140000D03*
D11*
%TO.P,R6,2*%
%TO.N,/OptoIsolation/Vcc*%
X111759999Y-114299999D03*
%TD*%
D10*
%TO.P,R11,1*%
%TO.N,+5V*%
X152400000Y-76240000D03*
D11*
%TO.P,R11,2*%
%TO.N,Net-(Q10-B)*%
X152399999Y-66079999D03*
%TD*%
D13*
%TO.P,Q14,1,C*%
%TO.N,/Inverter/VoutL*%
X165099999Y-111759999D03*
D14*
%TO.P,Q14,2,B*%
%TO.N,Net-(Q14-B)*%
X165099999Y-110489999D03*
%TO.P,Q14,3,E*%
%TO.N,GND*%
X165099999Y-109219999D03*
%TD*%
D10*
%TO.P,C2,1*%
%TO.N,/Serial/SGND*%
X86360000Y-96680000D03*
%TO.P,C2,2*%
%TO.N,/OptoIsolation/Serial_Gnd*%
X86360000Y-104180000D03*
%TD*%
%TO.P,R13,1*%
%TO.N,/Inverter/VoutL*%
X149860000Y-109220000D03*
D11*
%TO.P,R13,2*%
%TO.N,Net-(Q11-B)*%
X139699999Y-109219999D03*
%TD*%
D13*
%TO.P,Q7,1,C*%
%TO.N,/OptoIsolation/VoutL*%
X114299999Y-96519999D03*
D14*
%TO.P,Q7,2,B*%
%TO.N,Net-(Q7-B)*%
X114299999Y-97789999D03*
%TO.P,Q7,3,E*%
%TO.N,/OptoIsolation/Serial_Gnd*%
X114299999Y-99059999D03*
%TD*%
D23*
%TO.P,Q11,1,C*%
%TO.N,Net-(Q11-C)*%
X139699999Y-96519999D03*
D24*
%TO.P,Q11,2,B*%
%TO.N,Net-(Q11-B)*%
X140969999Y-96519999D03*
%TO.P,Q11,3,E*%
%TO.N,Net-(Q11-E)*%
X142239999Y-96519999D03*
%TD*%
D10*
%TO.P,C6,1*%
%TO.N,GND*%
X174050000Y-63500000D03*
%TO.P,C6,2*%
%TO.N,+5V*%
X181550000Y-63500000D03*
%TD*%
D15*
%TO.P,J7,1,MISO*%
%TO.N,Net-(J7-MISO)*%
X198119999Y-68579999D03*
D16*
%TO.P,J7,2,VCC*%
%TO.N,+5V*%
X200659999Y-68579999D03*
%TO.P,J7,3,SCK*%
%TO.N,Net-(J7-SCK)*%
X198119999Y-71119999D03*
%TO.P,J7,4,MOSI*%
%TO.N,Net-(J7-MOSI)*%
X200659999Y-71119999D03*
%TO.P,J7,5,~{RST}*%
%TO.N,Net-(D17-A)*%
X198119999Y-73659999D03*
%TO.P,J7,6,GND*%
%TO.N,GND*%
X200659999Y-73659999D03*
%TD*%
D23*
%TO.P,Q12,1,C*%
%TO.N,Net-(Q11-B)*%
X139699999Y-104139999D03*
D24*
%TO.P,Q12,2,B*%
%TO.N,Net-(Q11-E)*%
X140969999Y-104139999D03*
%TO.P,Q12,3,E*%
%TO.N,+5V*%
X142239999Y-104139999D03*
%TD*%
D10*
%TO.P,R16,1*%
%TO.N,/AVR/Rx*%
X157480000Y-106680000D03*
D11*
%TO.P,R16,2*%
%TO.N,+5V*%
X157479999Y-96519999D03*
%TD*%
D15*
%TO.P,J9,1,Pin_1*%
%TO.N,/AVR/PWMA*%
X185419999Y-101599999D03*
D16*
%TO.P,J9,2,Pin_2*%
%TO.N,/AVR/PWMB*%
X182879999Y-101599999D03*
%TO.P,J9,3,Pin_3*%
%TO.N,+12V*%
X180339999Y-101599999D03*
%TO.P,J9,4,Pin_4*%
%TO.N,GND*%
X177799999Y-101599999D03*
%TD*%
D13*
%TO.P,Q9,1,C*%
%TO.N,Net-(Q10-B)*%
X142239999Y-83819999D03*
D14*
%TO.P,Q9,2,B*%
%TO.N,Net-(Q9-B)*%
X142239999Y-82549999D03*
%TO.P,Q9,3,E*%
%TO.N,GND*%
X142239999Y-81279999D03*
%TD*%
D10*
%TO.P,C10,1*%
%TO.N,+12V*%
X203200000Y-104140000D03*
%TO.P,C10,2*%
%TO.N,Net-(C10-Pad2)*%
X195700000Y-104140000D03*
%TD*%
D19*
%TO.P,D5,1,K*%
%TO.N,Net-(D5-K)*%
X81279999Y-96559999D03*
D20*
%TO.P,D5,2,A*%
%TO.N,/Serial/SGND*%
X81279999Y-106719999D03*
%TD*%
D15*
%TO.P,J14,1,Pin_1*%
%TO.N,/Serial/CD*%
X55879999Y-94019999D03*
D16*
%TO.P,J14,2,Pin_2*%
%TO.N,/Serial/RXD*%
X55879999Y-96559999D03*
%TO.P,J14,3,Pin_3*%
%TO.N,/Serial/TXD*%
X55879999Y-99099999D03*
%TO.P,J14,4,Pin_4*%
%TO.N,/Serial/DTR*%
X55879999Y-101639999D03*
%TO.P,J14,5,Pin_5*%
%TO.N,/Serial/SGND*%
X55879999Y-104179999D03*
%TO.P,J14,6,Pin_6*%
%TO.N,/Serial/RTS*%
X55879999Y-106719999D03*
%TO.P,J14,7,Pin_7*%
%TO.N,/Serial/CTS*%
X55879999Y-109259999D03*
%TD*%
D12*
%TO.P,C1,1*%
%TO.N,Net-(D5-K)*%
X91439999Y-88939999D03*
D10*
%TO.P,C1,2*%
%TO.N,Net-(J1-Pin_2)*%
X91440000Y-86440000D03*
%TD*%
%TO.P,R5,1*%
%TO.N,/OptoIsolation/Vcc*%
X114300000Y-71120000D03*
D11*
%TO.P,R5,2*%
%TO.N,Net-(Q5-B)*%
X124459999Y-71119999D03*
%TD*%
D12*
%TO.P,C9,1*%
%TO.N,+12V*%
X198119999Y-96559999D03*
D10*
%TO.P,C9,2*%
%TO.N,GND*%
X198120000Y-99060000D03*
%TD*%
%TO.P,R8,1*%
%TO.N,Net-(Q8-B)*%
X121920000Y-104140000D03*
D11*
%TO.P,R8,2*%
%TO.N,/OptoIsolation/Vcc*%
X121919999Y-114299999D03*
%TD*%
D19*
%TO.P,D4,1,K*%
%TO.N,/Serial/SGND*%
X76199999Y-81319999D03*
D20*
%TO.P,D4,2,A*%
%TO.N,/OptoIsolation/Serial_Gnd*%
X76199999Y-91479999D03*
%TD*%
D19*
%TO.P,D1,1,K*%
%TO.N,/Serial/TXD*%
X60959999Y-91479999D03*
D20*
%TO.P,D1,2,A*%
%TO.N,/OptoIsolation/Serial_Gnd*%
X60959999Y-81319999D03*
%TD*%
D17*
%TO.P,D16,1,K*%
%TO.N,Net-(D16-K)*%
X149859999Y-91479999D03*
D18*
%TO.P,D16,2,A*%
%TO.N,+5V*%
X149860000Y-88940000D03*
%TD*%
D17*
%TO.P,D13,1,K*%
%TO.N,Net-(D13-K)*%
X160019999Y-91439999D03*
D18*
%TO.P,D13,2,A*%
%TO.N,Net-(D13-A)*%
X162560000Y-91440000D03*
%TD*%
D15*
%TO.P,J8,1,Pin_1*%
%TO.N,Net-(J8-Pin_1)*%
X177799999Y-83819999D03*
D16*
%TO.P,J8,2,Pin_2*%
%TO.N,GND*%
X175259999Y-83819999D03*
%TD*%
D19*
%TO.P,D10,1,K*%
%TO.N,/OptoIsolation/Vcc*%
X71119999Y-106719999D03*
D20*
%TO.P,D10,2,A*%
%TO.N,/Serial/RTS*%
X71119999Y-96559999D03*
%TD*%
D12*
%TO.P,C4,1*%
%TO.N,+5V*%
X206969999Y-55879999D03*
D10*
%TO.P,C4,2*%
%TO.N,GND*%
X204470000Y-55880000D03*
%TD*%
D13*
%TO.P,Q3,1,C*%
%TO.N,/OptoIsolation/Vcc*%
X71119999Y-116839999D03*
D14*
%TO.P,Q3,2,B*%
%TO.N,Net-(Q3-B)*%
X71119999Y-118109999D03*
%TO.P,Q3,3,E*%
%TO.N,/Serial/CTS*%
X71119999Y-119379999D03*
%TD*%
D10*
%TO.P,C7,1*%
%TO.N,GND*%
X181550000Y-78740000D03*
%TO.P,C7,2*%
%TO.N,+5V*%
X174050000Y-78740000D03*
%TD*%
D19*
%TO.P,D17,1,K*%
%TO.N,+5V*%
X208279999Y-78739999D03*
D20*
%TO.P,D17,2,A*%
%TO.N,Net-(D17-A)*%
X198119999Y-78739999D03*
%TD*%
D10*
%TO.P,R14,1*%
%TO.N,/Inverter/VinL*%
X157480000Y-124460000D03*
D11*
%TO.P,R14,2*%
%TO.N,Net-(Q13-B)*%
X157479999Y-114299999D03*
%TD*%
D10*
%TO.P,R17,1*%
%TO.N,Net-(Q14-B)*%
X165100000Y-106680000D03*
D11*
%TO.P,R17,2*%
%TO.N,/AVR/Tx*%
X165099999Y-96519999D03*
%TD*%
D10*
%TO.P,C11,1*%
%TO.N,GND*%
X203200000Y-100270000D03*
%TO.P,C11,2*%
%TO.N,+12V*%
X203200000Y-92770000D03*
%TD*%
D23*
%TO.P,Q6,1,C*%
%TO.N,Net-(Q6-C)*%
X124459999Y-83819999D03*
D24*
%TO.P,Q6,2,B*%
%TO.N,Net-(Q5-C)*%
X123189999Y-83819999D03*
%TO.P,Q6,3,E*%
%TO.N,Net-(Q5-B)*%
X121919999Y-83819999D03*
%TD*%
D26*
%TO.P,U4,1,GND*%
%TO.N,GND*%
X177799999Y-96519999D03*
D27*
%TO.P,U4,2,VO*%
%TO.N,+5V*%
X180339999Y-96519999D03*
%TO.P,U4,3,VI*%
%TO.N,+12V*%
X182879999Y-96519999D03*
%TD*%
D28*
%TO.N,Net-(D17-A)*%
X187960000Y-81320000D03*
X160020000Y-78780000D03*
%TO.N,Net-(D5-K)*%
X88900000Y-88940000D03*
%TO.N,/AVR/Rx*%
X161290000Y-93980000D03*
X161290000Y-88900000D03*
%TO.N,/AVR/Tx*%
X163830000Y-93980000D03*
X163830000Y-88900000D03*
%TO.N,Net-(J3-Pin_1)*%
X57897700Y-78257700D03*
X96520000Y-83860000D03*
%TO.N,Net-(J10-Pin_1)*%
X195580000Y-73700000D03*
X195580000Y-66080000D03*
%TO.N,Net-(J10-Pin_5)*%
X182880000Y-58460000D03*
X182880000Y-71160000D03*
%TO.N,Net-(J10-Pin_10)*%
X182880000Y-73700000D03*
X167640000Y-58460000D03*
%TD*%
D29*
%TO.N,Net-(D17-A)*%
X158760000Y-77520000D02*
X158760000Y-74920000D01*
X198120000Y-83820000D02*
X198120000Y-78740000D01*
X190460000Y-83820000D02*
X187960000Y-81320000D01*
X193040000Y-83820000D02*
X193040000Y-88900000D01*
X193040000Y-83820000D02*
X190460000Y-83820000D01*
X193040000Y-83820000D02*
X198080000Y-83820000D01*
X160020000Y-78780000D02*
X158760000Y-77520000D01*
X198080000Y-83820000D02*
X198120000Y-83860000D01*
X198120000Y-78740000D02*
X198120000Y-73660000D01*
%TO.N,Net-(D5-K)*%
X91440000Y-88940000D02*
X88900000Y-88940000D01*
X81280000Y-96560000D02*
X81280000Y-91480000D01*
%TO.N,Net-(Q10-B)*%
X152400000Y-66080000D02*
X146195000Y-72285000D01*
X146195000Y-79885000D02*
X148860000Y-82550000D01*
X148860000Y-82550000D02*
X147550000Y-83860000D01*
X147550000Y-83860000D02*
X142240000Y-83860000D01*
X146195000Y-72285000D02*
X146195000Y-79885000D01*
X149860000Y-82550000D02*
X148860000Y-82550000D01*
%TO.N,Net-(J1-Pin_2)*%
X91440000Y-86440000D02*
X91440000Y-83860000D01*
X91440000Y-83860000D02*
X95260000Y-80040000D01*
%TO.N,/OptoIsolation/Vcc*%
X96440000Y-109300000D02*
X96520000Y-109220000D01*
%TO.N,/OptoIsolation/VoutL*%
X109220000Y-101640000D02*
X109220000Y-101442918D01*
X109220000Y-101442918D02*
X114102918Y-96560000D01*
X109220000Y-101640000D02*
X109260000Y-101640000D01*
X109260000Y-101640000D02*
X111760000Y-104140000D01*
X114102918Y-96560000D02*
X114300000Y-96560000D01*
X106680000Y-101640000D02*
X109220000Y-101640000D01*
%TO.N,Net-(Q11-C)*%
X139700000Y-96520000D02*
X137145000Y-96520000D01*
X137145000Y-96520000D02*
X135880000Y-95255000D01*
%TO.N,Net-(U3-AREF)*%
X176540000Y-67300000D02*
X176540000Y-65970000D01*
X176540000Y-65970000D02*
X181550000Y-60960000D01*
%TO.N,Net-(Q11-B)*%
X139700000Y-102712918D02*
X139700000Y-104140000D01*
X140970000Y-96520000D02*
X141390000Y-96940000D01*
X139700000Y-109220000D02*
X139700000Y-104140000D01*
X141790000Y-97497082D02*
X141790000Y-100622918D01*
X141390000Y-96940000D02*
X141390000Y-97097082D01*
X141790000Y-100622918D02*
X139700000Y-102712918D01*
X141390000Y-97097082D02*
X141790000Y-97497082D01*
%TO.N,Net-(C10-Pad2)*%
X195700000Y-109100000D02*
X195580000Y-109220000D01*
X195700000Y-104140000D02*
X195700000Y-109100000D01*
%TO.N,Net-(D7-K)*%
X86360000Y-81320000D02*
X86360000Y-73700000D01*
%TO.N,Net-(D7-A)*%
X86360000Y-71160000D02*
X88900000Y-68620000D01*
X88900000Y-68620000D02*
X93980000Y-68620000D01*
%TO.N,Net-(Q13-B)*%
X158555000Y-111145000D02*
X157480000Y-110070000D01*
X157480000Y-114300000D02*
X158555000Y-113225000D01*
X158555000Y-113225000D02*
X158555000Y-111145000D01*
%TO.N,Net-(D11-A)*%
X128280000Y-87625000D02*
X125735000Y-87625000D01*
X125735000Y-87625000D02*
X124460000Y-88900000D01*
%TO.N,Net-(D12-A)*%
X135880000Y-92715000D02*
X138425000Y-92715000D01*
X138425000Y-92715000D02*
X139700000Y-91440000D01*
%TO.N,/OptoIsolation/VinL*%
X114300000Y-66040000D02*
X58440000Y-66040000D01*
X58440000Y-66040000D02*
X55880000Y-68600000D01*
%TO.N,/Serial/SGND*%
X86360000Y-91480000D02*
X76200000Y-81320000D01*
X86360000Y-101640000D02*
X86360000Y-96680000D01*
X76200000Y-81320000D02*
X85100000Y-72420000D01*
X78740000Y-104180000D02*
X81280000Y-106720000D01*
X55880000Y-104180000D02*
X78740000Y-104180000D01*
X85100000Y-72420000D02*
X92720000Y-72420000D01*
X86360000Y-96680000D02*
X86360000Y-91480000D01*
X81280000Y-106720000D02*
X86360000Y-101640000D01*
%TO.N,/Serial/RTS*%
X55880000Y-106720000D02*
X54705000Y-105545000D01*
X64865000Y-102815000D02*
X71120000Y-96560000D01*
X55583299Y-102815000D02*
X64865000Y-102815000D01*
X55880000Y-106720000D02*
X63460000Y-114300000D01*
X54705000Y-105545000D02*
X54705000Y-103693299D01*
X54705000Y-103693299D02*
X55583299Y-102815000D01*
X63460000Y-114300000D02*
X96520000Y-114300000D01*
X71120000Y-96560000D02*
X71120000Y-91480000D01*
%TO.N,/Serial/TXD*%
X55880000Y-99100000D02*
X58420000Y-99100000D01*
X60960000Y-96560000D02*
X60960000Y-91480000D01*
X55880000Y-71140000D02*
X54255000Y-72765000D01*
X54255000Y-72765000D02*
X54255000Y-97475000D01*
X58420000Y-99100000D02*
X60960000Y-96560000D01*
X54255000Y-97475000D02*
X55880000Y-99100000D01*
%TO.N,/Serial/DTR*%
X62135000Y-80479745D02*
X62135000Y-69775000D01*
X66040000Y-84384745D02*
X62135000Y-80479745D01*
X55880000Y-101640000D02*
X60960000Y-101640000D01*
X66040000Y-96560000D02*
X66040000Y-91480000D01*
X62135000Y-69775000D02*
X60960000Y-68600000D01*
X60960000Y-101640000D02*
X66040000Y-96560000D01*
X66040000Y-91480000D02*
X66040000Y-84384745D01*
%TO.N,Net-(D13-K)*%
X157480000Y-91480000D02*
X159980000Y-91480000D01*
X163875000Y-92665000D02*
X165100000Y-91440000D01*
X161245000Y-92665000D02*
X163875000Y-92665000D01*
X166325000Y-92665000D02*
X168955000Y-92665000D01*
X168955000Y-92665000D02*
X170180000Y-91440000D01*
X160020000Y-91440000D02*
X161245000Y-92665000D01*
X159980000Y-91480000D02*
X160020000Y-91440000D01*
X165100000Y-91440000D02*
X166325000Y-92665000D01*
%TO.N,/Amplifier/Motor-*%
X193040000Y-119380000D02*
X198120000Y-119380000D01*
X203200000Y-119380000D02*
X198160000Y-119380000D01*
X208280000Y-114300000D02*
X203200000Y-119380000D01*
X190500000Y-116840000D02*
X193040000Y-119380000D01*
%TO.N,/AVR/Rx*%
X157480000Y-106680000D02*
X157480000Y-109220000D01*
X161290000Y-93980000D02*
X161290000Y-102870000D01*
X161300000Y-74920000D02*
X161300000Y-88890000D01*
X161300000Y-88890000D02*
X161290000Y-88900000D01*
X161290000Y-102870000D02*
X157480000Y-106680000D01*
%TO.N,Net-(Q1-B)*%
X96520000Y-101640000D02*
X100330000Y-97830000D01*
X100330000Y-96520000D02*
X100330000Y-88900000D01*
X100330000Y-97830000D02*
X100330000Y-96520000D01*
%TO.N,/Inverter/VoutL*%
X165100000Y-114300000D02*
X165100000Y-111760000D01*
X149860000Y-109220000D02*
X156065000Y-115425000D01*
X163975000Y-115425000D02*
X165100000Y-114300000D01*
X156065000Y-115425000D02*
X163975000Y-115425000D01*
%TO.N,Net-(D13-A)*%
X166380000Y-87620000D02*
X162560000Y-91440000D01*
X166380000Y-74920000D02*
X166380000Y-87620000D01*
%TO.N,Net-(D14-A)*%
X168920000Y-90160000D02*
X167640000Y-91440000D01*
X168920000Y-74920000D02*
X168920000Y-90160000D01*
%TO.N,Net-(Q3-B)*%
X63500000Y-118110000D02*
X71120000Y-118110000D01*
X71120000Y-118110000D02*
X74890000Y-118110000D01*
X74890000Y-118110000D02*
X76200000Y-119420000D01*
%TO.N,/Inverter/VinL*%
X150935000Y-82902082D02*
X149977082Y-83860000D01*
X149977082Y-83860000D02*
X149860000Y-83860000D01*
X149860000Y-83820000D02*
X148635000Y-85045000D01*
X148635000Y-85045000D02*
X148635000Y-115615000D01*
X148635000Y-115615000D02*
X157480000Y-124460000D01*
X147320000Y-76200000D02*
X150935000Y-79815000D01*
X150935000Y-79815000D02*
X150935000Y-82902082D01*
%TO.N,Net-(D15-A)*%
X171460000Y-74920000D02*
X172720000Y-76180000D01*
X172720000Y-76180000D02*
X172720000Y-91440000D01*
%TO.N,Net-(Q15-B)*%
X173990000Y-110490000D02*
X175260000Y-109220000D01*
X173990000Y-114300000D02*
X173990000Y-110490000D01*
%TO.N,/Serial/CTS*%
X63500000Y-119380000D02*
X71120000Y-119380000D01*
X62950000Y-119380000D02*
X63500000Y-119380000D01*
X55880000Y-109260000D02*
X55880000Y-112310000D01*
X55880000Y-112310000D02*
X62950000Y-119380000D01*
%TO.N,/AVR/Tx*%
X165100000Y-95250000D02*
X165100000Y-96520000D01*
X163830000Y-93980000D02*
X165100000Y-95250000D01*
X163840000Y-74920000D02*
X163840000Y-88890000D01*
X163840000Y-88890000D02*
X163830000Y-88900000D01*
%TO.N,/Serial/CD*%
X55880000Y-94020000D02*
X55880000Y-81300000D01*
X55880000Y-81300000D02*
X60960000Y-76220000D01*
%TO.N,Net-(J3-Pin_1)*%
X101600000Y-96520000D02*
X101600000Y-88940000D01*
X101600000Y-88742918D02*
X101600000Y-88900000D01*
X55880000Y-76220000D02*
X55880000Y-76240000D01*
X96717082Y-83860000D02*
X101600000Y-88742918D01*
X55880000Y-76240000D02*
X57897700Y-78257700D01*
X96520000Y-83860000D02*
X96717082Y-83860000D01*
%TO.N,/AVR/PWMB*%
X184160000Y-74920000D02*
X184160000Y-100320000D01*
X184160000Y-100320000D02*
X182880000Y-101600000D01*
%TO.N,/AVR/PWMA*%
X186700000Y-74920000D02*
X186700000Y-100320000D01*
X186700000Y-100320000D02*
X185420000Y-101600000D01*
X185420000Y-101600000D02*
X185420000Y-109220000D01*
%TO.N,/Serial/RXD*%
X55880000Y-96560000D02*
X54705000Y-95385000D01*
X55880000Y-73700000D02*
X55880000Y-73680000D01*
X54705000Y-74875000D02*
X55880000Y-73700000D01*
X54705000Y-95385000D02*
X54705000Y-74875000D01*
%TO.N,Net-(J6-Pin_2)*%
X93750000Y-119420000D02*
X97695000Y-115475000D01*
X86360000Y-119420000D02*
X93750000Y-119420000D01*
X97695000Y-112935000D02*
X96520000Y-111760000D01*
X97695000Y-115475000D02*
X97695000Y-112935000D01*
%TO.N,Net-(J7-MISO)*%
X184160000Y-67300000D02*
X187530000Y-70670000D01*
X187530000Y-70670000D02*
X196030000Y-70670000D01*
X196030000Y-70670000D02*
X198120000Y-68580000D01*
%TO.N,Net-(J7-SCK)*%
X181620000Y-67300000D02*
X185440000Y-71120000D01*
X185440000Y-71120000D02*
X198120000Y-71120000D01*
%TO.N,Net-(J7-MOSI)*%
X188020000Y-68620000D02*
X195730000Y-68620000D01*
X196945000Y-67405000D02*
X199295000Y-67405000D01*
X195730000Y-68620000D02*
X196945000Y-67405000D01*
X186700000Y-67300000D02*
X188020000Y-68620000D01*
X199295000Y-69755000D02*
X200660000Y-71120000D01*
X199295000Y-67405000D02*
X199295000Y-69755000D01*
%TO.N,Net-(Q5-C)*%
X124460000Y-76200000D02*
X124460000Y-81895000D01*
X124460000Y-76200000D02*
X125585000Y-75075000D01*
X123190000Y-83165000D02*
X123190000Y-83820000D01*
X125585000Y-67165000D02*
X124460000Y-66040000D01*
X124460000Y-66040000D02*
X124460000Y-69995000D01*
X124460000Y-81895000D02*
X123190000Y-83165000D01*
X125585000Y-75075000D02*
X125585000Y-67165000D01*
%TO.N,Net-(Q5-B)*%
X124460000Y-71120000D02*
X123190000Y-72390000D01*
X123190000Y-76200000D02*
X123190000Y-80625000D01*
X123190000Y-80625000D02*
X121920000Y-81895000D01*
X121920000Y-81895000D02*
X121920000Y-83820000D01*
X123190000Y-72390000D02*
X123190000Y-76200000D01*
%TO.N,Net-(Q6-C)*%
X127015000Y-83820000D02*
X128280000Y-85085000D01*
X124460000Y-83820000D02*
X127015000Y-83820000D01*
%TO.N,Net-(Q7-B)*%
X119420000Y-96520000D02*
X121920000Y-96520000D01*
X114300000Y-97790000D02*
X118150000Y-97790000D01*
X118150000Y-97790000D02*
X119420000Y-96520000D01*
X118150000Y-102870000D02*
X116840000Y-104180000D01*
X118150000Y-97790000D02*
X118150000Y-102870000D01*
%TO.N,Net-(Q8-B)*%
X121920000Y-97790000D02*
X125725000Y-97790000D01*
X125725000Y-100335000D02*
X125725000Y-97790000D01*
X125725000Y-97790000D02*
X128260000Y-95255000D01*
X121920000Y-104140000D02*
X125725000Y-100335000D01*
%TO.N,Net-(Q9-B)*%
X142240000Y-82550000D02*
X138435000Y-82550000D01*
X142240000Y-76200000D02*
X143315000Y-77275000D01*
X143315000Y-77275000D02*
X143315000Y-81700000D01*
X143315000Y-81700000D02*
X142465000Y-82550000D01*
X138435000Y-82550000D02*
X135900000Y-85085000D01*
X142465000Y-82550000D02*
X142240000Y-82550000D01*
%TO.N,Net-(Q11-E)*%
X140970000Y-113070000D02*
X139700000Y-114340000D01*
X140970000Y-103982918D02*
X140970000Y-104140000D01*
X140970000Y-104140000D02*
X140970000Y-113070000D01*
X142240000Y-96520000D02*
X142240000Y-102712918D01*
X142240000Y-102712918D02*
X140970000Y-103982918D01*
%TO.N,/AVR/IntA*%
X140605000Y-63255000D02*
X134905431Y-63255000D01*
X134305000Y-62654569D02*
X134305000Y-58785000D01*
X156445000Y-68425000D02*
X152790000Y-64770000D01*
X134305000Y-58785000D02*
X138480000Y-54610000D01*
X134905431Y-63255000D02*
X134305000Y-62654569D01*
X144170000Y-64770000D02*
X141630000Y-62230000D01*
X141630000Y-62230000D02*
X140605000Y-63255000D01*
X152790000Y-64770000D02*
X144170000Y-64770000D01*
X161300000Y-67300000D02*
X160175000Y-68425000D01*
X160175000Y-68425000D02*
X156445000Y-68425000D01*
%TO.N,/AVR/IntB*%
X145845000Y-63295000D02*
X144780000Y-62230000D01*
X154755000Y-63295000D02*
X145845000Y-63295000D01*
X158760000Y-67300000D02*
X154755000Y-63295000D01*
X143755000Y-61205000D02*
X136355000Y-61205000D01*
X136355000Y-61205000D02*
X135330000Y-62230000D01*
X144780000Y-62230000D02*
X143755000Y-61205000D01*
%TO.N,Net-(Q14-B)*%
X164025000Y-107755000D02*
X165100000Y-106680000D01*
X164025000Y-109572082D02*
X164025000Y-107755000D01*
X165100000Y-110490000D02*
X164942918Y-110490000D01*
X164942918Y-110490000D02*
X164025000Y-109572082D01*
%TO.N,Net-(Q15-C)*%
X175260000Y-119380000D02*
X175260000Y-114340000D01*
%TO.N,Net-(Q16-B)*%
X185420000Y-119380000D02*
X190500000Y-114300000D01*
%TO.N,Net-(J8-Pin_1)*%
X177800000Y-83820000D02*
X182880000Y-83820000D01*
%TO.N,+12V*%
X198120000Y-96560000D02*
X199410000Y-96560000D01*
X206950000Y-96520000D02*
X203200000Y-92770000D01*
X180340000Y-101600000D02*
X180340000Y-105730991D01*
X203200000Y-109220000D02*
X203200000Y-104140000D01*
X180340000Y-101600000D02*
X180340000Y-99060000D01*
X205780000Y-109220000D02*
X208320000Y-111760000D01*
X208280000Y-96520000D02*
X206950000Y-96520000D01*
X180340000Y-99060000D02*
X182880000Y-96520000D01*
X180340000Y-105730991D02*
X184954009Y-110345000D01*
X199410000Y-96560000D02*
X203200000Y-92770000D01*
X203200000Y-109220000D02*
X205780000Y-109220000D01*
X208280000Y-96780991D02*
X203200000Y-101860991D01*
X202075000Y-110345000D02*
X203200000Y-109220000D01*
X184954009Y-110345000D02*
X202075000Y-110345000D01*
X203200000Y-101860991D02*
X203200000Y-104140000D01*
X208280000Y-96520000D02*
X208280000Y-96780991D01*
%TO.N,Net-(J10-Pin_1)*%
X195580000Y-66080000D02*
X193040000Y-63540000D01*
X193040000Y-63540000D02*
X193040000Y-55920000D01*
X191780000Y-74920000D02*
X194360000Y-74920000D01*
X194360000Y-74920000D02*
X195580000Y-73700000D01*
%TO.N,Net-(J10-Pin_2)*%
X190500000Y-66020000D02*
X191780000Y-67300000D01*
X190500000Y-55880000D02*
X190500000Y-66020000D01*
%TO.N,Net-(J10-Pin_3)*%
X187960000Y-55880000D02*
X187960000Y-66020000D01*
X187960000Y-66020000D02*
X189240000Y-67300000D01*
%TO.N,Net-(J10-Pin_4)*%
X185420000Y-61909009D02*
X185420000Y-55920000D01*
X180495000Y-73505000D02*
X180495000Y-66834009D01*
X179080000Y-74920000D02*
X180495000Y-73505000D01*
X180495000Y-66834009D02*
X185420000Y-61909009D01*
%TO.N,Net-(J10-Pin_5)*%
X181620000Y-74920000D02*
X181620000Y-72420000D01*
X181620000Y-72420000D02*
X182880000Y-71160000D01*
X182880000Y-58460000D02*
X182880000Y-55880000D01*
%TO.N,Net-(J10-Pin_6)*%
X171840991Y-67300000D02*
X180340000Y-58800991D01*
X180340000Y-58800991D02*
X180340000Y-55880000D01*
X171460000Y-67300000D02*
X171840991Y-67300000D01*
%TO.N,Net-(J10-Pin_7)*%
X168920000Y-67300000D02*
X168920000Y-64499009D01*
X168920000Y-64499009D02*
X177539009Y-55880000D01*
X177539009Y-55880000D02*
X177800000Y-55880000D01*
%TO.N,Net-(J10-Pin_8)*%
X166380000Y-67300000D02*
X166380000Y-64760000D01*
X166380000Y-64760000D02*
X175260000Y-55880000D01*
%TO.N,Net-(J10-Pin_9)*%
X163840000Y-64760000D02*
X172720000Y-55880000D01*
X163840000Y-67300000D02*
X163840000Y-64760000D01*
%TO.N,Net-(J10-Pin_10)*%
X189240000Y-74920000D02*
X188603604Y-74920000D01*
X188603604Y-74920000D02*
X187383604Y-73700000D01*
X167640000Y-58420000D02*
X170180000Y-55880000D01*
X167640000Y-58460000D02*
X167640000Y-58420000D01*
X187383604Y-73700000D02*
X182880000Y-73700000D01*
%TO.N,Net-(J11-Pin_3)*%
X154940000Y-54670000D02*
X158810000Y-54670000D01*
X142695000Y-53545000D02*
X153815000Y-53545000D01*
X153815000Y-53545000D02*
X154940000Y-54670000D01*
X158810000Y-54670000D02*
X160020000Y-55880000D01*
X141630000Y-54610000D02*
X142695000Y-53545000D01*
%TO.N,Net-(J11-Pin_1)*%
X154975000Y-57055000D02*
X163925000Y-57055000D01*
X144780000Y-54610000D02*
X144780000Y-57090000D01*
X144780000Y-57090000D02*
X149860000Y-62170000D01*
X149860000Y-62170000D02*
X154975000Y-57055000D01*
X163925000Y-57055000D02*
X165100000Y-55880000D01*
%TD*%
M02*
