M48
; DRILL file {KiCad (7.0.0)} date Wed May 24 11:11:00 2023
; FORMAT={-:-/ absolute / inch / decimal}
; #@! TF.CreationDate,2023-05-24T11:11:00+02:00
; #@! TF.GenerationSoftware,Kicad,Pcbnew,(7.0.0)
; #@! TF.FileFunction,Plated,1,4,PTH
FMAT,2
INCH
; #@! TA.AperFunction,Plated,PTH,ViaDrill
T1C0.0157
; #@! TA.AperFunction,Plated,PTH,ComponentDrill
T2C0.0276
; #@! TA.AperFunction,Plated,PTH,ComponentDrill
T3C0.0295
; #@! TA.AperFunction,Plated,PTH,ComponentDrill
T4C0.0315
; #@! TA.AperFunction,Plated,PTH,ComponentDrill
T5C0.0354
; #@! TA.AperFunction,Plated,PTH,ComponentDrill
T6C0.0394
; #@! TA.AperFunction,Plated,PTH,ComponentDrill
T7C0.0433
%
G90
G05
T1
X2.2794Y-3.081
X3.5Y-3.5016
X3.8Y-3.3016
X6.3Y-3.1016
X6.35Y-3.5
X6.35Y-3.7
X6.45Y-3.5
X6.45Y-3.7
X6.6Y-2.3016
X7.2Y-2.3016
X7.2Y-2.8016
X7.2Y-2.9016
X7.4Y-3.2016
X7.7Y-2.6016
X7.7Y-2.9016
T2
X5.328Y-2.15
X5.328Y-2.45
X5.452Y-2.15
X5.452Y-2.45
X5.576Y-2.15
X5.576Y-2.45
X5.7Y-2.15
X5.7Y-2.45
T3
X2.5Y-4.6
X2.5Y-4.65
X2.5Y-4.7
X2.8Y-4.6
X2.8Y-4.65
X2.8Y-4.7
X3.9Y-3.5
X3.9Y-3.8
X3.95Y-3.5
X3.95Y-3.8
X4.0Y-3.5
X4.0Y-3.8
X4.5Y-3.8
X4.5Y-3.85
X4.5Y-3.9
X4.8Y-3.0
X4.8Y-3.3
X4.8Y-3.8
X4.8Y-3.85
X4.8Y-3.9
X4.85Y-3.0
X4.85Y-3.3
X4.9Y-3.0
X4.9Y-3.3
X5.5Y-3.8
X5.5Y-4.1
X5.55Y-3.8
X5.55Y-4.1
X5.6Y-3.2
X5.6Y-3.25
X5.6Y-3.3
X5.6Y-3.8
X5.6Y-4.1
X5.9Y-3.2
X5.9Y-3.25
X5.9Y-3.3
X6.2Y-4.3
X6.2Y-4.35
X6.2Y-4.4
X6.5Y-4.3
X6.5Y-4.35
X6.5Y-4.4
X6.8Y-4.5
X6.85Y-4.5
X6.9Y-4.5
T4
X3.0Y-4.7016
X3.4Y-3.2016
X3.4Y-3.6016
X3.4Y-3.8063
X3.4Y-4.1016
X3.4Y-4.7016
X3.6Y-3.4031
X3.6Y-3.5016
X3.6Y-3.8041
X3.6Y-3.9026
X3.6504Y-2.8512
X3.6504Y-3.1512
X3.7504Y-2.8512
X3.7504Y-3.1512
X3.8Y-4.0016
X3.8504Y-2.8512
X3.8504Y-3.1512
X3.9504Y-2.8512
X3.9504Y-3.1512
X4.2Y-4.0016
X4.4Y-4.1
X4.4Y-4.5
X4.5Y-2.6
X4.5Y-2.8
X4.6Y-4.1
X4.6Y-4.5
X4.8Y-4.1
X4.8Y-4.5
X4.9Y-2.6
X4.9Y-2.8
X5.0496Y-3.6502
X5.0496Y-3.7502
X5.0504Y-3.3498
X5.0504Y-3.4498
X5.3496Y-3.6502
X5.3496Y-3.7502
X5.3504Y-3.3498
X5.3504Y-3.4498
X5.5Y-4.3
X5.5Y-4.5
X5.6Y-2.6
X5.6Y-3.0
X5.8Y-2.6
X5.8Y-3.0
X5.9Y-2.1524
X5.9Y-2.4476
X5.9Y-3.7016
X5.9Y-4.1016
X5.9Y-4.3
X5.9Y-4.5
X6.0Y-2.6016
X6.0Y-3.0016
X6.1Y-2.1524
X6.1Y-2.4476
X6.2Y-3.2016
X6.2Y-3.6016
X6.2Y-3.8
X6.2Y-4.2
X6.2Y-4.5
X6.2Y-4.9
X6.2504Y-2.6496
X6.2504Y-2.9496
X6.3504Y-2.6496
X6.3504Y-2.9496
X6.4504Y-2.6496
X6.4504Y-2.9496
X6.5Y-3.8
X6.5Y-4.2
X6.5Y-4.5
X6.5Y-4.9
X6.5504Y-2.6496
X6.5504Y-2.9496
X6.6504Y-2.6496
X6.6504Y-2.9496
X6.7504Y-2.6496
X6.7504Y-2.9496
X6.8504Y-2.6496
X6.8504Y-2.9496
X6.8524Y-2.4
X6.8524Y-2.5
X6.8524Y-3.1
X6.9Y-4.3
X6.9Y-4.7
X6.9504Y-2.6496
X6.9504Y-2.9496
X7.0504Y-2.6496
X7.0504Y-2.9496
X7.1476Y-2.4
X7.1476Y-2.5
X7.1476Y-3.1
X7.1504Y-2.6496
X7.1504Y-2.9496
X7.2Y-3.3
X7.2504Y-2.6496
X7.2504Y-2.9496
X7.3Y-4.3
X7.3Y-4.7
X7.3504Y-2.6496
X7.3504Y-2.9496
X7.4504Y-2.6496
X7.4504Y-2.9496
X7.5504Y-2.6496
X7.5504Y-2.9496
X7.6Y-3.3
X7.6Y-3.5
X7.7Y-4.3
X7.7Y-4.7
X7.7047Y-4.1
X7.7969Y-3.5
X7.8Y-3.3
X7.8Y-3.8016
X7.8Y-3.9
X7.9524Y-2.4
X8.0Y-3.6524
X8.0Y-3.9476
X8.0Y-4.1
X8.05Y-2.2
X8.1484Y-2.2
X8.2Y-3.3
X8.2476Y-2.4
T5
X3.4Y-2.8016
X3.4Y-2.9016
X4.9Y-3.5
X4.9Y-3.6
X5.5Y-3.5
X5.5Y-3.6
X5.9Y-3.5016
X5.9Y-3.6016
X6.3Y-3.6
X6.4Y-3.6
X6.5Y-3.6
X6.6Y-3.6
X6.7Y-3.6
X6.8Y-3.6
T6
X2.2Y-2.7008
X2.2Y-2.8008
X2.2Y-2.9008
X2.2Y-3.0008
X2.2Y-3.7016
X2.2Y-3.8016
X2.2Y-3.9016
X2.2Y-4.0016
X2.2Y-4.1016
X2.2Y-4.2016
X2.2Y-4.3016
X2.4Y-2.7008
X2.4Y-3.0008
X3.7Y-2.7016
X3.8Y-2.7016
X3.8Y-4.2
X3.8Y-4.3
X3.8Y-4.4
X3.8Y-4.5
X6.3Y-2.2
X6.4Y-2.2
X6.5Y-2.2
X6.7Y-2.2
X6.8Y-2.2
X6.9Y-2.2
X6.9Y-3.3
X7.0Y-2.2
X7.0Y-3.3
X7.0Y-4.0
X7.1Y-2.2
X7.1Y-4.0
X7.2Y-2.2
X7.2Y-4.0
X7.3Y-2.2
X7.3Y-4.0
X7.4Y-2.2
X7.5Y-2.2
X7.5Y-4.5
X7.5Y-4.6
X7.5Y-4.7
X7.6Y-2.2
X7.8Y-2.7
X7.8Y-2.8
X7.8Y-2.9
X7.9Y-2.7
X7.9Y-2.8
X7.9Y-2.9
X8.1Y-2.6
X8.1Y-2.7
X8.1Y-2.8
X8.1Y-2.9
X8.2Y-2.6
X8.2Y-2.7
X8.2Y-2.8
X8.2Y-2.9
X8.2Y-3.8
X8.2Y-3.9
X8.2Y-4.4
X8.2Y-4.5
T7
X2.4Y-3.2016
X2.4Y-3.6016
X2.4Y-3.8016
X2.4Y-4.2016
X2.6Y-3.2016
X2.6Y-3.6016
X2.6Y-3.8016
X2.6Y-4.2016
X2.8Y-3.2016
X2.8Y-3.6016
X2.8Y-3.8016
X2.8Y-4.2016
X3.0Y-3.2016
X3.0Y-3.6016
X3.2Y-3.2016
X3.2Y-3.6016
X3.2Y-3.8016
X3.2Y-4.2016
X7.0Y-3.8
X7.1Y-3.8
X7.2Y-3.8
X7.8Y-3.1
X8.0Y-4.3
X8.0Y-4.7
X8.2Y-3.1
T0
M30
